<svg width="40" height="40" viewBox="0 0 40 40" fill="none" xmlns="http://www.w3.org/2000/svg">
<g clip-path="url(#clip0_2_34)">
<path d="M30.8627 32.4665C30.7712 32.5248 30.6667 32.5831 30.5752 32.6414C30.4706 32.6997 30.3791 32.758 30.2745 32.8047C30.183 32.8513 30.1046 32.898 30.0131 32.9446C30 32.9563 29.9869 32.9563 29.9738 32.9679C29.6732 33.1312 29.3595 33.2828 29.0457 33.4228C28.9542 33.4694 28.8497 33.516 28.7582 33.551C28.7582 33.551 28.7451 33.5627 28.732 33.5627L28.4183 33.7026C28.2091 33.7959 27.9869 33.8776 27.7778 33.9592C27.6732 34.0058 27.5555 34.0408 27.451 34.0758C27.3464 34.1108 27.2288 34.1574 27.1242 34.1924C27.0196 34.2274 26.902 34.2741 26.7974 34.3091H26.7843C26.6797 34.344 26.5621 34.379 26.4575 34.414C26.2222 34.484 25.9738 34.5539 25.7386 34.6239C25.6601 34.6472 25.5686 34.6706 25.4902 34.6939C25.2418 34.7639 24.9935 34.8222 24.7451 34.8688C24.6536 34.8921 24.5621 34.9038 24.4575 34.9271C24.2222 34.9738 23.9738 35.0204 23.7386 35.0671C23.6863 35.0787 23.6471 35.0787 23.5948 35.0904C23.5163 35.1021 23.4248 35.1137 23.3464 35.1254C23.2288 35.137 23.1242 35.1604 23.0065 35.172C22.9542 35.1837 22.902 35.1837 22.8497 35.1953C22.7843 35.207 22.7059 35.2187 22.6274 35.2187C22.4183 35.242 22.1961 35.2653 21.9869 35.2886C21.9216 35.3003 21.8431 35.3003 21.7778 35.312H21.7647C21.6732 35.3236 21.5817 35.3236 21.4902 35.3353C21.3987 35.347 21.3072 35.347 21.2157 35.347C21.1634 35.347 21.098 35.3586 21.0457 35.3586C20.9412 35.3586 20.8497 35.3703 20.7582 35.3703C20.6274 35.3703 20.5098 35.3819 20.3791 35.3819H19.7255C14.2091 35.312 9.2549 33.2245 5.71241 29.9126C5.71241 29.9126 5.71241 29.9009 5.69934 29.9009C5.30718 29.586 5.64705 27.9067 7.22875 26.8455C9.21568 25.5044 13.9739 24.6647 13.9739 24.6647C13.9739 24.6647 15.817 24.3965 22.6536 25.6677C26.6536 26.414 29.6993 27.4986 31.3987 30.4373C31.7516 31.0437 32.1046 31.9767 30.8627 32.4665Z" fill="white"/>
<path d="M22.6928 25.5393C25.2026 25.9942 27.8824 26.484 29.9477 27.965C30.6405 28.4665 31.098 29.2012 31.4771 29.9125C31.6601 30.2624 31.8431 30.6239 31.9869 31.0087C32.0654 31.2653 32.183 31.5568 32.1177 31.86C32.1046 31.9417 32.0261 32.0466 31.9608 32.1049C31.6601 32.3732 31.3333 32.5364 31.0065 32.7463C29.085 33.9358 26.8758 34.7755 24.5882 35.2186C19.4902 36.2099 13.9739 35.4402 9.4902 33.0496C8 32.2449 6.62746 31.2653 5.45099 30.1108C5.32027 29.9708 5.32027 29.7376 5.32027 29.586C5.33334 29.2361 5.43791 28.8979 5.56863 28.5831C5.88236 27.86 6.28759 27.137 6.9804 26.6356C7.47713 26.3323 8.01308 26.0758 8.5621 25.8659C10.2876 25.2128 12.1046 24.758 13.9739 24.5714C14.1307 24.5598 14.1569 24.758 14 24.7813C12.2092 25.1079 10.4314 25.5977 8.77125 26.2624C8.16994 26.5306 7.52942 26.7638 7.04576 27.1837C6.58824 27.6268 6.26144 28.1749 6.00001 28.7347C5.83007 29.0729 5.71242 29.6093 5.76471 29.8775C6.58824 30.7522 7.55556 31.5219 8.60131 32.1866C14.3268 35.7551 23.0196 35.9883 29.1111 33.0146C29.6601 32.7463 30.1961 32.4431 30.7059 32.1283C30.9543 31.9767 31.2157 31.8484 31.4118 31.6735C31.4248 31.6618 31.4118 31.6735 31.4118 31.6851C31.4118 31.6968 31.3987 31.7084 31.3987 31.7084C31.4118 31.5685 31.3595 31.3819 31.2941 31.1953C31.0588 30.5189 30.6797 29.8076 30.2745 29.1895C29.634 28.2682 28.549 27.6851 27.451 27.2186C26.6928 26.9038 25.8954 26.6589 25.085 26.4256C24.2745 26.1924 23.451 25.9942 22.6275 25.8192C22.4183 25.7726 22.4837 25.5044 22.6928 25.5393Z" fill="black"/>
</g>
<path d="M35.2025 39.6968H2.14366C2.14366 39.6968 3.68615 35.242 4.84954 31.1254C5.30706 29.516 6.15673 27.3236 7.20248 26.6822C8.64039 25.7959 11.0195 25.2945 12.0914 24.9563C12.8365 24.723 13.4116 24.6414 13.9476 24.5131C13.9476 24.5714 13.9607 24.6181 13.9607 24.6764C13.9607 24.6764 15.1502 27.0554 18.8234 28.3732C21.8169 29.4577 22.8626 29.0262 23.1371 27.8251C23.3071 27.0554 23.7384 26.8805 23.4639 26.4723C23.3071 26.3557 23.2025 26.1808 23.1502 26.0058L23.0456 25.621C23.294 25.5743 23.5293 25.516 23.7646 25.4461C23.843 25.4227 23.9084 25.3994 23.9868 25.3761C25.4378 26.1108 27.4378 26.344 29.8561 27.93C30.2875 28.2099 31.5424 29.4227 32.0652 32.3732C32.7973 36.2566 35.2025 39.6968 35.2025 39.6968Z" fill="black"/>
<path d="M35.4379 39.8134C25.6209 39.8484 11.817 39.965 2.14379 39.9417C1.98692 39.9417 1.86928 39.8367 1.86928 39.6968C2.24836 38.2507 2.86274 36.1633 3.28104 34.7055C3.60784 33.5277 4.01307 32.2099 4.33987 31.0204C4.81045 29.4694 5.39869 27.4519 6.87581 26.4257C7.35947 26.1458 7.89542 25.9475 8.40523 25.7726C9.52941 25.3994 10.6797 25.1195 11.8301 24.8047C12.4837 24.5831 13.2157 24.4432 13.8954 24.2682C14.0392 24.2332 14.183 24.3032 14.2222 24.4198C14.2353 24.4548 14.2353 24.6064 14.2484 24.6414L13.9739 24.4198C14.0784 24.4198 14.183 24.4781 14.2222 24.5598C14.3268 24.758 14.4706 24.9679 14.6144 25.1545C16 26.9388 18.2353 28.0816 20.5621 28.6181C21.2288 28.7464 22.1176 28.898 22.6013 28.3732C22.915 28.0117 22.902 27.4519 23.1503 27.0554C23.2418 26.8688 23.3464 26.7522 23.2418 26.5889L23.2941 26.6472C23.1242 26.5073 22.9935 26.3324 22.9281 26.1458C22.8758 25.9708 22.8366 25.8192 22.7974 25.6676C22.7582 25.5394 22.8627 25.3994 23.0065 25.3761C23.3072 25.3178 23.6209 25.2362 23.9085 25.1429C23.9869 25.1195 24.0654 25.1312 24.1307 25.1545C24.5098 25.3061 24.902 25.4344 25.3072 25.5627C26.5752 25.9242 27.8431 26.309 29.0065 26.9038C29.3987 27.102 29.7778 27.3236 30.1438 27.5569C30.5752 27.8484 30.8497 28.1749 31.1242 28.5598C32.1176 29.9475 32.4314 31.5452 32.7582 33.1312C33.2549 35.1837 34.1176 37.1662 35.1372 39.0554L35.281 39.312L35.3464 39.4402L35.3856 39.4985L35.3987 39.5335L35.4118 39.5452C35.4118 39.5335 35.4248 39.5569 35.4379 39.5918C35.4902 39.6735 35.4771 39.7668 35.4379 39.8134ZM34.9673 39.5802C34.9281 39.6268 34.915 39.7085 34.9412 39.7668C34.9542 39.8018 34.9673 39.8251 34.9673 39.8134L34.9542 39.8017L34.9281 39.7668L34.8889 39.7085C34.0261 38.3907 33.3072 37.0029 32.7451 35.5685C32.3791 34.6356 32.0784 33.691 31.8823 32.7114C31.6471 31.4169 31.281 30.0641 30.4967 28.9446C30.2876 28.6531 30.0261 28.3382 29.7124 28.1283C29.3595 27.9067 29.0065 27.6851 28.6405 27.4985C27.9085 27.102 27.1242 26.7872 26.3268 26.5073C25.5294 26.2157 24.6797 25.9942 23.8823 25.586L24.1046 25.5977C23.7908 25.7026 23.464 25.7843 23.1242 25.8426L23.3333 25.551C23.4118 25.8076 23.4248 26.1108 23.6601 26.2857C23.8039 26.4257 23.8693 26.6706 23.8301 26.8688C23.7908 27.0437 23.7124 27.1604 23.6601 27.2653C23.5425 27.4869 23.464 27.6735 23.4118 27.9184C22.9542 29.9475 20.3268 29.1662 18.8366 28.6414C16.7451 27.895 14.7974 26.5889 13.7386 24.7813L13.9869 24.9213C13.8431 24.9213 13.7255 24.828 13.7124 24.6997L13.6993 24.5481L14.0392 24.758C13.3072 24.8746 12.6536 24.9679 11.9739 25.1895C10.4183 25.621 8.75817 25.9825 7.41176 26.8105C6.01307 27.7201 5.21568 30.9504 4.77124 32.4432C4.28758 34.0875 3.77777 35.7201 3.24183 37.3411C2.96732 38.1574 2.69281 38.9621 2.40523 39.7784L2.14379 39.4636C11.634 39.4519 25.3464 39.5102 34.9673 39.5802Z" fill="black"/>
<path d="M21.9476 29.2478L21.9737 29.2711V29.2478H21.9476Z" fill="white"/>
<path d="M25.0719 24.9213C25.0719 24.9213 25.0719 23.8017 23.9739 23.5102C21.9477 22.9621 18.1176 22.7172 15.5556 22.7172C15.5556 22.7172 14.4706 22.7872 14.0784 22.9621C13.6993 23.1254 13.2418 23.2303 13.1373 23.9883C13.085 24.3615 13.085 24.9563 13.098 25.481C13.1111 26.1808 13.4248 26.8571 13.9739 27.3586C14.8497 28.1633 16.6667 29.2128 18.7451 29.5277C23.7516 30.274 25.1111 28.3265 25.0719 27.2886C25.0196 26.0875 25.0719 24.9213 25.0719 24.9213Z" fill="black"/>
<path d="M24.7974 24.9096C24.7712 24.4082 24.4706 23.8717 23.8954 23.7318C23.7124 23.6851 23.5294 23.6385 23.3595 23.6035C20.8105 23.102 18.1699 22.9854 15.5556 22.9504C15.2157 22.9854 14.5621 23.0321 14.183 23.172C14.0261 23.242 13.8301 23.3119 13.6993 23.4052C13.3987 23.6385 13.3856 24.0466 13.3726 24.4082C13.3595 24.6181 13.3595 24.828 13.3595 25.0379C13.281 26.4606 13.9869 27.2186 15.2549 27.9767C16.2092 28.5598 17.281 28.9796 18.4183 29.2128C19.9739 29.481 21.6993 29.6093 23.1895 29.0729C23.9739 28.793 24.7059 28.1982 24.7974 27.4286C24.8105 27.2653 24.7974 26.9854 24.7974 26.8221C24.7712 26.2157 24.7712 25.5277 24.7974 24.9096ZM25.3333 24.9213C25.3203 25.5393 25.3203 26.2041 25.3333 26.8221C25.3333 27.0204 25.3595 27.3003 25.3333 27.4869C25.2157 28.4665 24.3399 29.2012 23.3856 29.551C21.8824 30.1108 20.2092 30.0175 18.6405 29.7959C18.3007 29.7376 17.8824 29.656 17.5556 29.5627C16.1438 29.1545 14.8235 28.5014 13.7647 27.5685C13.0065 26.9038 12.719 25.9708 12.7843 25.0496C12.8235 24.3732 12.6928 23.5685 13.3203 23.0437C13.5163 22.9038 13.7124 22.8221 13.9216 22.7405C14.4575 22.5539 14.9804 22.5189 15.5294 22.4723C17.2941 22.484 19.0588 22.5656 20.8235 22.7522C21.8693 22.8688 22.9281 22.9971 23.9477 23.2653L24.0261 23.2886L24.1176 23.3236C24.5752 23.5219 24.7712 23.9533 25.0327 24.3032C25.2026 24.4898 25.3203 24.688 25.3333 24.9213Z" fill="black"/>
<path d="M13.1895 25.4694C13.4771 29.2128 19.9477 33.2128 23.7908 31.137C24.7974 30.5306 25.0719 29.3761 25.0458 28.3615C25.0458 28.0117 25.0065 27.6618 24.9804 27.3003C24.9673 27.2187 25.1242 27.1953 25.1373 27.277C25.6863 29.2362 25.4118 31.4053 22.8497 31.9884C19.2549 32.7697 15.1765 30.414 13.5948 27.5919C13.2288 26.9388 12.9935 26.2158 12.9804 25.4927C12.9935 25.3761 13.1765 25.3528 13.1895 25.4694Z" fill="white"/>
<path d="M23.9214 28.6414C23.6469 29.8426 21.8692 30.5656 18.8757 29.4811C15.7646 28.3615 14.4182 25.691 14.0783 24.898C15.9214 21.8192 14.6404 19.6851 14.6404 19.6851C18.8888 19.3586 22.6012 23.7901 22.6012 23.7901L23.1763 25.9825C23.2286 26.1691 23.3332 26.3324 23.4901 26.449C23.7646 26.8805 24.0914 27.8717 23.9214 28.6414Z" fill="white"/>
<path d="M14.0131 24.9329C14.2614 24.5948 14.4183 24.1983 14.5229 23.8134C14.719 23.0087 14.7843 22.1924 14.7974 21.3761V21.0729C14.7582 20.7697 14.6405 20.4548 14.5098 20.1749C14.3399 19.8018 14.9543 19.5685 15.1503 19.9417C15.1765 19.9883 15.1765 20.07 15.1765 20.1166C15.2157 21.7026 15.2941 23.7434 14.1699 25.0612C14.0915 25.1312 13.9346 25.0262 14.0131 24.9329ZM22.7451 23.7668C22.9412 23.8717 23.0065 24.0117 23.0327 24.1516C23.1111 24.4315 23.085 24.7347 23.1634 25.0262C23.2288 25.3061 23.4248 25.5743 23.4771 25.8659C23.5425 26.1691 23.7386 26.8105 23.817 27.1254C23.8431 27.1953 23.7909 27.277 23.6994 27.2886C23.6471 27.3003 23.6078 27.2886 23.5686 27.2653C23.3987 27.137 23.3203 27.0087 23.2157 26.8455C23.0458 26.5656 22.9281 26.309 22.8235 25.9942C22.732 25.7143 22.7712 25.4111 22.6928 25.1195C22.6275 24.8397 22.4444 24.5714 22.3791 24.2799C22.3399 24.1399 22.3268 23.9883 22.4444 23.8134C22.5229 23.7434 22.6536 23.7201 22.7451 23.7668Z" fill="black"/>
<path d="M23.6863 26.8455C21.1895 26.7289 19.1503 26.0292 17.1634 22.8688C18.8366 24.1866 20.8105 24.688 22.8889 24.9213L23.1634 25.9942C23.2157 26.1808 23.5294 26.7289 23.6863 26.8455Z" fill="black"/>
<path d="M23.5817 26.414C24.0262 27.1603 24.2876 28.0933 24.0131 28.9213C23.8039 29.5044 23.2026 29.9359 22.549 30.0991C21.0327 30.4606 19.2811 29.8892 17.9346 29.2478C16.2745 28.4198 15.0458 27.0321 14.2614 25.516C14.2092 25.3994 14.3922 25.3061 14.4706 25.4227C14.7451 25.9125 15.0588 26.3907 15.4118 26.8221C15.7647 27.2653 16.1699 27.6735 16.6275 28.035C17.9608 29.1079 19.7647 29.7726 21.5686 29.7726C23.4248 29.7259 24.1307 28.8513 23.6994 27.242C23.634 26.9854 23.5294 26.7172 23.3856 26.4956C23.3072 26.4023 23.5033 26.2974 23.5817 26.414Z" fill="black"/>
<path d="M28.6405 12.4082C28.8758 13.3878 28.9935 14.1808 28.3529 16.793C27.7255 19.3936 29.2549 19.93 25.634 24.0933C24.1569 25.7959 20.5752 25.3178 17.6732 23.5569C16.6928 22.9621 16.2745 21.4344 15.5425 20.3499C14.9673 19.4986 14.7059 20.3849 13.9477 19.6502C12.915 18.6472 11.6732 16.6298 12.2876 13.0612C13.2811 7.27698 18.4183 6.6006 22.2222 7.242C26.0523 7.89506 28.0131 9.83092 28.6405 12.4082Z" fill="white"/>
<path d="M14.6013 20.688C14.3007 20.2332 13.9085 19.8367 13.5425 19.4169C13.1895 18.9854 12.902 18.5073 12.6667 18.0175C11.1111 14.6122 11.7124 9.81923 15.5294 7.8134C17.1111 6.99707 19.0196 6.79882 20.7974 6.9271C24.6013 7.172 28.0915 8.73468 28.915 12.3265C29.3595 13.9125 28.7582 15.5452 28.4183 17.0962C28.2614 17.8659 28.3922 18.6589 28.3791 19.4519C28.366 20.2565 28.1176 21.0612 27.7778 21.8076C27.5686 22.3207 27.2026 22.7755 26.8235 23.1953C26.1961 23.8717 25.5686 24.5598 24.7712 25.0845C24.5882 25.2012 24.2614 25.2595 24.0392 25.2828C23.4248 25.3644 22.8235 25.3877 22.2091 25.3528C19.8039 25.2595 17.2288 24.2216 16.2614 22.1458C16.2222 22.0641 16.3529 22.0058 16.4052 22.0758C17.6601 23.8484 19.9608 24.723 22.2484 24.8396C22.9542 24.8746 23.6732 24.863 24.366 24.7347C24.7059 24.5831 25.0065 24.3149 25.2941 24.07C26 23.4402 26.719 22.7638 27.2288 21.9942C27.8431 20.9563 28.183 19.8251 28.0784 18.6472C28.0523 18.1224 28.0392 17.5743 28.1569 17.0496C28.2614 16.5248 28.3922 16.0233 28.4706 15.4869C28.549 14.9737 28.5882 14.449 28.5882 13.9358C28.5229 12.4315 27.9739 10.8805 26.902 9.71427C24.5359 7.09037 18.9412 6.40232 15.7908 8.19824C13.8039 9.29445 12.8758 11.3469 12.5752 13.3411C12.1176 15.7318 12.2484 18.0875 14.3791 19.8251L15.0065 20.4082C15.2549 20.6647 14.8105 20.9679 14.6013 20.688Z" fill="black"/>
<path d="M16.1437 16.9796C16.1437 16.9796 15.7384 15.2303 13.8299 15.4402C12.1829 15.6268 11.6077 19.1487 15.3463 20.1283" fill="white"/>
<path d="M15.1765 18.6006C14.8758 18.449 14.6667 18.1924 14.6536 17.8775C14.6667 17.6443 14.7059 17.3761 14.6405 17.1429C14.6013 16.9213 14.3399 16.863 14.1438 16.8746C13.9346 16.9096 13.8039 17.1429 13.7647 17.3294C13.7647 17.3411 13.7516 17.3761 13.7516 17.3878C13.7386 17.4461 13.634 17.4461 13.6078 17.3878C13.4379 16.9329 13.817 16.4315 14.366 16.4898C15.1373 16.5364 15.2418 17.2595 15.098 17.8076C15.0196 18.0408 15.1242 18.2507 15.268 18.449L15.2941 18.484C15.3595 18.5539 15.2549 18.6472 15.1765 18.6006ZM25.634 15.7434C25.8301 16.5714 26.1961 17.3411 26.6536 18.0641C27.0588 18.9504 26.0131 19.7901 25.085 19.7551C24.9804 19.7551 24.9673 19.6268 25.0588 19.6035C25.6471 19.4402 26.183 19.0904 26.2745 18.5539C26.3137 18.3907 26.2614 18.2507 26.1699 18.1108C25.7386 17.3878 25.4771 16.5598 25.5425 15.7434C25.5425 15.6851 25.634 15.6851 25.634 15.7434Z" fill="black"/>
<path d="M16.0784 16.9913C15.7778 16.3032 15.1242 15.6501 14.2484 15.6618C14.1699 15.6501 14.0392 15.6735 13.9608 15.6735C13.7386 15.6851 13.5556 15.7551 13.3856 15.895C12.549 16.6414 12.6928 17.9592 13.3725 18.7872C13.6078 19.0787 13.9085 19.3353 14.2484 19.5452C14.5882 19.7551 14.9673 19.9184 15.3725 20.0583C15.464 20.0816 15.4248 20.2099 15.3333 20.1982C14.4575 20.035 13.6209 19.6501 13.0457 19.0087C12.1569 18.0525 11.9739 16.4548 13.0327 15.5219C13.268 15.3353 13.5948 15.1953 13.9216 15.1953C14.0261 15.1953 14.183 15.172 14.2876 15.1953C14.8366 15.2187 15.3595 15.4636 15.6993 15.8484C16 16.1749 16.1699 16.5714 16.2222 16.9679C16.2222 17.0379 16.1046 17.0612 16.0784 16.9913Z" fill="black"/>
<path d="M29.098 23.7201C29.817 22.6356 29.7124 21.2945 29.7124 21.2945C29.6078 22.484 28.9412 23.3003 28.4967 23.7201C28.0523 23.6735 27.5555 23.5452 26.9804 23.3119C29.7124 20.9096 29.0719 14.5889 29.0588 14.0408C28.9804 11.207 27.2418 10.8571 25.1895 11.7318C16.1699 8.95626 18.0915 12.6531 15.8954 16.4082C13.8301 13.4227 10.2484 17.8542 14.5359 19.8484L14.9412 23.7434C14 23.86 13.1765 23.8834 12.4575 23.8251C12.183 23.137 11.4118 21.1662 11.3464 20.9679C11.268 20.723 11.7647 23.4169 11.7647 23.4169C11.7647 23.4169 10.8366 22.3324 10.549 21.691C10.549 21.691 10.7582 22.8455 11.2157 23.6152C4.24836 21.8076 12 9.97084 12.4706 10.0408C12.4706 10.0408 11.1895 6.43731 14.3399 4.8513C17.4248 3.30028 19.817 5.22448 19.817 5.22448C20.8758 2.83381 26.2484 2.91544 27.1634 5.85422C32.3268 5.9825 30.1569 12.4198 30.0654 12.4781C30.2484 13.9242 33.0588 23.3119 29.098 23.7201Z" fill="black"/>
<path d="M22.7712 14.2274C23.0588 14.2041 23.2026 13.9009 23.0458 13.6676C22.9543 13.551 22.8366 13.4461 22.6667 13.3878C22.1699 13.2478 20.549 13.5627 19.8431 14.2857C19.2157 14.9504 21.4641 14.3324 22.7712 14.2274ZM26.2222 14.414C26 14.3557 25.9346 14.0641 26.1177 13.8775C26.2092 13.7843 26.3399 13.7026 26.4837 13.6793C26.9281 13.6093 27.9477 13.9708 28.2353 14.6589C28.4967 15.2536 27.281 14.6472 26.2222 14.414ZM20.7582 16.9329C20.4444 16.9213 20.2092 16.688 20.2353 16.4082L20.2484 16.0816C20.2614 15.8017 20.5229 15.5918 20.8366 15.6152C21.1503 15.6268 21.3856 15.8601 21.3595 16.1399L21.3464 16.4665C21.3333 16.7347 21.0719 16.9446 20.7582 16.9329ZM26.2614 17.1079C25.9739 17.0962 25.7516 16.8746 25.7647 16.6181L25.7778 16.3149C25.7909 16.0583 26.0392 15.8601 26.3268 15.8717C26.6144 15.8834 26.8366 16.105 26.8235 16.3615L26.8105 16.6647C26.7974 16.9213 26.549 17.1195 26.2614 17.1079Z" fill="black"/>
<path d="M21.9346 16.3032C21.5033 16.0466 21.0327 15.8717 20.5098 15.965C20.3399 15.9883 20.1699 16.035 20.0654 16.1399C20.0261 16.1866 19.9346 16.1749 19.9346 16.105C19.9477 15.8717 20.1699 15.7201 20.3791 15.6268C20.7843 15.4402 21.3464 15.4752 21.7124 15.7201C21.8431 15.7901 22.2876 16.2216 22.0523 16.3149C22 16.3382 21.9739 16.3265 21.9346 16.3032ZM25.6731 16.3615C25.6731 15.8717 26.3528 15.6968 26.7711 15.8717C27.0064 15.965 27.1763 16.1516 27.2417 16.3732C27.2678 16.4431 27.1502 16.5015 27.0979 16.4431C26.8757 16.2099 26.4966 16.0933 26.196 16.2332C26.1045 16.2799 26.0914 16.3149 26.0652 16.3615C26.0652 16.5947 25.6862 16.5831 25.6731 16.3615Z" fill="black"/>
<path d="M24.6405 20.9213C23.8039 21.6326 22.2222 21.0612 21.8039 20.1982C21.7516 20.0933 21.8824 20 21.9869 20.0466C22.2092 20.1516 22.4052 20.2566 22.6144 20.3382C23.2157 20.5831 23.8431 20.7813 24.5098 20.723C24.6405 20.6997 24.732 20.8396 24.6405 20.9213Z" fill="black"/>
<path d="M26.5098 22.8688C26.2614 23.172 26.1307 23.2536 25.9085 23.242C25.6601 23.2303 25.451 22.8805 24.719 22.8688C24.1176 22.8571 23.1373 23.1487 21.8954 23.3819C20.4444 23.6501 17.8824 22.5773 17.3203 20.9679C17.1634 20.5131 17.0327 20.0467 16.902 19.6501C16.8627 19.5335 16.6928 19.4985 16.6144 19.5918C16.5229 19.6968 16.4314 19.7901 16.3268 19.8717C16.1961 19.9883 16.1176 20.1516 16.1176 20.3149C16.1176 20.5248 16.1307 20.7114 16.1307 20.8397C16.2222 21.8659 16.366 22.1924 16.8889 22.8571C17.4118 23.5219 19.2418 25.3178 21.6209 25.4811C24.0131 25.6327 25.3333 25.4577 26.6667 24.0933C27.8693 22.8571 27.9085 20.2915 27.9085 20.2915C27.268 22.0175 26.8366 22.4606 26.5098 22.8688Z" fill="black"/>
<path d="M18.4967 19.242C18.8627 19.0671 19.2157 18.8805 19.6209 18.7872C19.6601 18.7872 19.6863 18.7755 19.7647 18.7988C20.0392 18.9854 19.2418 19.4519 19.098 19.5685C19.1372 19.5219 19.1242 19.4402 19.0588 19.4169C19.0457 19.4169 19.0457 19.4053 19.0327 19.4053H19.0065C19.3333 19.3003 19.6601 19.1837 19.9738 19.0437C20.1569 18.9738 20.4052 18.8222 20.6013 18.8105C20.6797 18.8105 20.7712 18.8805 20.7582 18.9504C20.7451 19.0437 20.7189 19.0787 20.6928 19.137C20.6667 19.1837 20.6144 19.2537 20.6013 19.3003C20.6013 19.312 20.5882 19.2886 20.5882 19.2886C20.5882 19.3003 20.6667 19.3003 20.6797 19.2886C20.8889 19.2653 21.1111 19.1953 21.3203 19.1254C21.3595 19.1137 21.3856 19.1604 21.3464 19.1837C21.1242 19.312 20.8889 19.4519 20.6013 19.4752C20.4183 19.4869 20.3268 19.3353 20.3921 19.1953C20.4183 19.1137 20.4837 19.0204 20.5098 18.9504C20.5098 18.9738 20.5359 19.0088 20.5621 19.0204C20.5882 19.0321 20.6013 19.0204 20.5882 19.0321C20.4575 19.0671 20.1961 19.1953 20.0784 19.242C19.7386 19.3819 19.4118 19.5102 19.0457 19.6035C19.0196 19.6035 19.0196 19.6152 18.9804 19.6035C18.8758 19.5918 18.8497 19.4752 18.9281 19.4169C19.085 19.3003 19.268 19.207 19.4118 19.0904C19.4902 19.0321 19.5817 18.9504 19.634 18.8805C19.634 18.8921 19.647 18.9155 19.6601 18.9271C19.5425 18.9388 19.3072 18.9971 19.1634 19.0554C18.9542 19.1254 18.732 19.207 18.5229 19.2886C18.4967 19.312 18.4575 19.2537 18.4967 19.242ZM26.9673 19.242C27.085 19.1254 27.5817 18.5656 27.7124 18.8572V18.9155C27.6601 19.1487 27.4902 19.3469 27.3595 19.5452C27.3856 19.4869 27.3333 19.4053 27.268 19.3936H27.2157C27.2026 19.3936 27.2157 19.3936 27.2287 19.3819C27.4902 19.2303 27.6863 19.0437 27.9477 18.8805C28 18.8572 28.0653 18.8222 28.1307 18.8572C28.1961 18.9038 28.183 18.9738 28.1569 19.0204C28.1307 19.0787 28.1046 19.1254 28.0784 19.1837C28.0654 19.1953 28.0523 19.207 28.0261 19.1953C28.0131 19.1953 28.0131 19.1837 28.0131 19.172V18.9738C28.0131 18.9621 28 18.9504 28.0131 18.9738C28.0131 18.9854 28.0392 19.0088 28.0653 19.0088H28.1046C27.8823 19.242 27.6209 19.4636 27.3203 19.6152C27.2287 19.6502 27.1242 19.5802 27.1372 19.4869C27.1372 19.4752 27.1503 19.4519 27.1634 19.4402C27.2549 19.3236 27.3595 19.207 27.4379 19.0904C27.4771 19.0321 27.5294 18.9504 27.5425 18.8921C27.5425 18.9155 27.5948 18.9504 27.6078 18.9388C27.3987 19.0088 27.2157 19.1604 27.0327 19.277C26.9804 19.312 26.9412 19.2653 26.9673 19.242Z" fill="black"/>
<defs>
<clipPath id="clip0_2_34">
<rect width="40" height="35.6851" fill="white"/>
</clipPath>
</defs>
</svg>
