<svg width="492" height="681" viewBox="0 0 492 681" fill="none" xmlns="http://www.w3.org/2000/svg">
<path d="M110.494 202.5H112.674C113.792 202.5 114.818 203.122 115.334 204.114L125.289 223.227C126.168 224.915 125.273 226.984 123.441 227.5L111.494 230.864M110.494 202.5L99.7436 205.432M110.494 202.5L109.244 200.736M107.994 198.972L109.085 198.669C110.48 198.281 111.4 196.953 111.27 195.51L108.76 167.54M107.994 198.972L97.9936 201.75M107.994 198.972L109.244 200.736M93.4936 162.589L107.994 159M93.4936 162.589L97.9936 201.75M93.4936 162.589L73.4936 167.54M107.994 159C107.994 159 114.794 157.947 120.341 157.031C122.05 156.748 123.65 157.957 123.81 159.682C124.602 168.201 125.195 178.769 125.408 182.816C125.463 183.863 124.966 184.865 124.043 185.36C121.421 186.767 116.272 188.773 117.494 182C119.117 173 120.323 166.233 114.494 164.5C111.089 163.488 108.76 167.54 108.76 167.54M107.994 159L108.76 167.54M107.994 159L84.4935 156.5M97.9936 201.75L87.7436 204.597M57.4936 171.5L73.4936 167.54M57.4936 171.5L58.6334 173.811M57.4936 171.5L77.4936 158.734M73.4936 167.54L87.7436 204.597M87.7436 204.597L77.4936 207.444M77.4936 207.444V209.472M77.4936 207.444C76.3335 207.767 75.1081 207.218 74.5755 206.138L65.6306 188M77.4936 211.5L88.9936 208.364M77.4936 211.5V209.472M77.4936 211.5C76.3891 211.5 75.4936 212.395 75.4936 213.5V237.039C75.4936 239.027 77.3928 240.465 79.3067 239.926L91.4936 236.495M88.9936 208.364L91.4936 236.495M88.9936 208.364L99.7436 205.432M91.4936 236.495L111.494 230.864M99.7436 205.432L111.494 230.864M58.6334 173.811C58.6334 173.811 55.9935 175.5 49.4935 176C42.9935 176.5 65.6306 188 65.6306 188M58.6334 173.811L65.6306 188M77.4936 209.472L109.244 200.736M84.4935 156.5H81.8695C81.2975 156.5 80.7375 156.664 80.2554 156.971L77.4936 158.734M84.4935 156.5L83.6216 154.201C82.4921 151.224 78.1128 151.825 77.8285 154.997L77.4936 158.734M172.821 150.201L172.86 150.297M172.86 150.297L194.78 203.669C195.37 205.103 196.955 205.852 198.438 205.396L225.717 197.003C227.194 196.548 228.084 195.046 227.773 193.532L216.321 137.701M172.86 150.297C173.274 150.494 173.744 150.597 174.246 150.575C190.531 149.84 200.54 146.589 215.181 138.702C216.98 137.733 217.269 135.279 215.762 133.898L212.821 131.201M172.86 150.297C171.646 149.718 170.915 148.324 171.272 146.894L172.321 142.701M212.821 131.201C209.208 133.279 205.984 135.124 202.914 136.701M212.821 131.201C203.567 130.717 196.676 131.003 189.825 133.201M202.914 136.701C193.504 141.538 185.546 143.866 172.321 142.701M202.914 136.701H192.825C191.169 136.701 189.825 135.358 189.825 133.701V133.201M172.321 142.701C176.325 139.804 178.903 137.902 182.321 136.201M189.825 133.201H183.321C183.321 133.201 181.321 133.201 182.321 136.201M181.321 139.201C181.321 139.201 183.321 139.201 182.321 136.201M36.8206 295.201L36.8598 295.297M36.8598 295.297L58.7804 348.669C59.3696 350.103 60.9553 350.852 62.4377 350.396L89.7166 342.003C91.1935 341.548 92.0837 340.046 91.7731 338.533L80.3206 282.701M36.8598 295.297C37.2738 295.494 37.7439 295.597 38.2462 295.575C54.531 294.84 64.5399 291.589 79.1808 283.702C80.9802 282.733 81.2687 280.279 79.762 278.898L76.8206 276.201M36.8598 295.297C35.6459 294.718 34.9149 293.324 35.2725 291.894L36.3206 287.701M76.8206 276.201C73.2082 278.279 69.9838 280.124 66.914 281.701M76.8206 276.201C67.5675 275.717 60.6763 276.003 53.8254 278.201M66.914 281.701C57.5036 286.538 49.5464 288.866 36.3206 287.701M66.914 281.701H56.8254C55.1686 281.701 53.8254 280.358 53.8254 278.701V278.201M36.3206 287.701C40.3247 284.804 42.9034 282.902 46.3206 281.201M53.8254 278.201H47.3206C47.3206 278.201 45.3206 278.201 46.3206 281.201M45.3206 284.201C45.3206 284.201 47.3206 284.201 46.3206 281.201M178.494 261C178.494 261 183.994 256 209.494 265C234.994 274 234.994 282 234.994 282M178.494 261C184.494 272.5 216.994 285.5 234.994 282M178.494 261C174.166 272.38 175.131 283.864 179.494 292.534M234.994 282C234.116 283.399 233.234 284.731 232.349 286M232.349 286C251.994 282 241.994 314 216.494 302.204M232.349 286C231.566 287.122 230.781 288.193 229.994 289.216M216.494 302.204C217.82 301.341 219.155 300.359 220.494 299.251M216.494 302.204C215.15 303.077 213.816 303.828 212.494 304.461M220.494 299.251C223.654 296.635 226.838 293.318 229.994 289.216M220.494 299.251C236.994 307 245.994 286.5 229.994 289.216M179.494 292.534C185.586 304.642 198.306 311.264 212.494 304.461M179.494 292.534C167.646 291.673 163.02 293.01 163.046 295.5M212.494 304.461C221.609 312.012 224.819 316.524 224.183 318.833M163.046 295.5C163.046 295.5 162.892 292.126 161.994 300.5C161.096 308.874 220.494 329 222.994 322.5C224.661 318.167 224.485 318.278 224.183 318.833M163.046 295.5C163.136 304.083 218.512 326.363 223.848 319.5M223.848 319.5C224.002 319.302 224.114 319.08 224.183 318.833M223.848 319.5C223.848 319.5 224.031 319.111 224.183 318.833M316.831 534.385C316.831 534.385 322.331 529.385 347.831 538.385C373.331 547.385 373.331 555.385 373.331 555.385M316.831 534.385C322.831 545.885 355.331 558.885 373.331 555.385M316.831 534.385C312.503 545.765 313.468 557.249 317.831 565.919M373.331 555.385C372.453 556.784 371.571 558.116 370.686 559.385M370.686 559.385C390.331 555.385 380.331 587.385 354.831 575.589M370.686 559.385C369.903 560.507 369.118 561.578 368.331 562.601M354.831 575.589C356.157 574.726 357.492 573.744 358.831 572.636M354.831 575.589C353.487 576.462 352.153 577.213 350.831 577.846M358.831 572.636C361.991 570.02 365.175 566.703 368.331 562.601M358.831 572.636C375.331 580.385 384.331 559.885 368.331 562.601M317.831 565.919C323.923 578.027 336.643 584.649 350.831 577.846M317.831 565.919C305.983 565.058 301.357 566.395 301.383 568.885M350.831 577.846C359.945 585.397 363.156 589.909 362.519 592.218M301.383 568.885C301.383 568.885 301.229 565.511 300.331 573.885C299.433 582.259 358.83 602.385 361.331 595.885C362.998 591.552 362.822 591.663 362.519 592.218M301.383 568.885C301.473 577.468 356.849 599.748 362.185 592.885M362.185 592.885C362.339 592.687 362.451 592.465 362.519 592.218M362.185 592.885C362.185 592.885 362.368 592.496 362.519 592.218M189.993 359.5C189.993 359.5 180.819 358.849 174.993 358C172.84 357.686 169.493 357.105 169.493 357.105M189.993 359.5C187.745 388.422 187.635 403.965 189.812 428.489C189.92 429.703 189.296 430.903 188.142 431.297C184.583 432.511 182.667 431.395 177.493 437M189.993 359.5C188.587 363.844 187.347 367.982 186.251 372M177.493 437C163.195 436.037 155.194 434.925 141.001 430.502L140.992 430.499C140.824 430.446 129.814 426.963 122.494 426.5C121.369 426.429 120.016 426.409 118.745 426.413C116.671 426.419 115.134 424.428 115.736 422.444C117.829 415.543 122.066 401.268 124.493 391C126.614 382.031 128.797 370.015 130.257 361.5M177.493 437C178.729 410.604 180.538 392.943 186.251 372M151.493 354.174L134.972 351.485C133.33 351.218 131.783 352.337 131.515 353.979C131.214 355.83 130.782 358.439 130.257 361.5M151.493 354.174L169.493 357.105M151.493 354.174L149.188 365M169.493 357.105L167.063 368M139.745 397.5C131.745 406 138.812 419.289 147.493 418.5C148.794 418.382 149.892 417.839 150.773 417M139.745 397.5C143.456 393.557 149.619 399.134 151.993 404C154.192 408.504 153.616 414.292 150.773 417M139.745 397.5C143.916 400.181 145.857 406.595 146.192 407.802C146.229 407.934 146.252 408.065 146.271 408.201C146.425 409.289 147.331 414.519 150.773 417M130.257 361.5L136.493 362.5M149.188 365L146.433 377.935C146.222 378.927 147.076 379.82 148.076 379.653L148.205 379.631C148.685 379.551 149.167 379.76 149.437 380.165C149.761 380.652 150.382 380.845 150.925 380.627L151.449 380.418C152.094 380.16 152.829 380.269 153.372 380.703L153.837 381.075C154.558 381.652 155.522 381.824 156.398 381.532L156.598 381.465C157.453 381.18 158.396 381.403 159.034 382.04L159.751 382.758C160.177 383.184 160.851 383.232 161.333 382.87L161.959 382.401C162.237 382.192 162.637 382.286 162.792 382.597C163.027 383.067 163.721 382.982 163.835 382.47L167.063 368M149.188 365L140.993 363.5M167.063 368L173.493 369.5M186.251 372L177.493 370.5M153.993 407.5C153.993 407.5 157.493 405.5 160.993 406C161.809 406.117 162.471 406.43 162.993 406.892M162.993 406.892C166.193 409.723 164.144 418.129 159.993 421C156.315 423.544 151.898 425.158 148.954 422M162.993 406.892C158.883 409.202 157.034 410.98 154.993 415.5C152.953 420.02 148.954 422 148.954 422M148.954 422C148.188 421.179 147.521 420.035 146.993 418.5M428.71 405.055C428.71 405.055 419.536 404.404 413.71 403.555C411.557 403.241 408.21 402.659 408.21 402.659M428.71 405.055C426.462 433.977 426.351 449.52 428.528 474.044C428.636 475.258 428.012 476.458 426.859 476.851C423.3 478.065 421.384 476.95 416.21 482.555M428.71 405.055C427.303 409.399 426.063 413.537 424.967 417.555M416.21 482.555C401.912 481.592 393.911 480.48 379.718 476.057L379.708 476.054C379.54 476.001 368.531 472.517 361.21 472.055C360.086 471.984 358.732 471.964 357.461 471.967C355.388 471.973 353.851 469.982 354.452 467.998C356.545 461.097 360.783 446.822 363.21 436.555C365.33 427.586 367.513 415.569 368.974 407.055M416.21 482.555C417.446 456.158 419.254 438.498 424.967 417.555M390.21 399.729L373.689 397.039C372.047 396.772 370.499 397.891 370.232 399.533C369.93 401.385 369.499 403.993 368.974 407.055M390.21 399.729L408.21 402.659M390.21 399.729L387.905 410.555M408.21 402.659L405.779 413.555M378.462 443.055C370.462 451.555 377.529 464.844 386.21 464.055C387.511 463.936 388.609 463.393 389.489 462.555M378.462 443.055C382.173 439.112 388.335 444.688 390.71 449.555C392.908 454.059 392.333 459.847 389.489 462.555M378.462 443.055C382.632 445.736 384.574 452.149 384.909 453.357C384.945 453.489 384.968 453.619 384.988 453.755C385.142 454.843 386.048 460.074 389.489 462.555M368.974 407.055L375.21 408.055M387.905 410.555L385.15 423.489C384.939 424.481 385.793 425.374 386.793 425.207L386.921 425.186C387.401 425.106 387.884 425.315 388.154 425.72C388.478 426.206 389.099 426.399 389.642 426.182L390.165 425.973C390.811 425.714 391.546 425.823 392.089 426.258L392.554 426.63C393.275 427.206 394.239 427.378 395.115 427.086L395.314 427.02C396.17 426.735 397.113 426.957 397.75 427.595L398.468 428.312C398.894 428.738 399.568 428.786 400.05 428.425L400.676 427.955C400.954 427.747 401.353 427.841 401.509 428.152C401.743 428.621 402.437 428.536 402.551 428.024L405.779 413.555M387.905 410.555L379.71 409.055M405.779 413.555L412.21 415.055M424.967 417.555L416.21 416.055M392.71 453.055C392.71 453.055 396.21 451.055 399.71 451.555C400.526 451.671 401.188 451.985 401.71 452.447M401.71 452.447C404.909 455.277 402.861 463.683 398.71 466.555C395.032 469.099 390.615 470.713 387.67 467.555M401.71 452.447C397.599 454.757 395.751 456.535 393.71 461.055C391.669 465.574 387.67 467.555 387.67 467.555M387.67 467.555C386.904 466.733 386.238 465.589 385.71 464.055M213.71 9.05456C213.71 9.05456 204.536 8.40359 198.71 7.55456C196.557 7.24071 193.21 6.65921 193.21 6.65921M213.71 9.05456C211.462 37.9766 211.351 53.5196 213.528 78.0438C213.636 79.2578 213.012 80.458 211.859 80.8514C208.3 82.0652 206.384 80.9498 201.21 86.5546M213.71 9.05456C212.303 13.3986 211.063 17.537 209.967 21.5546M201.21 86.5546C186.912 85.5915 178.911 84.4798 164.718 80.057L164.708 80.0539C164.54 80.0007 153.531 76.5173 146.21 76.0546C145.086 75.9835 143.732 75.9637 142.461 75.9674C140.388 75.9734 138.851 73.9824 139.452 71.9982C141.545 65.0971 145.783 50.8225 148.21 40.5546C150.33 31.586 152.513 19.5691 153.974 11.0546M201.21 86.5546C202.446 60.1584 204.254 42.4977 209.967 21.5546M175.21 3.72898L158.689 1.03947C157.047 0.772133 155.499 1.89119 155.232 3.53341C154.93 5.38477 154.499 7.9933 153.974 11.0546M175.21 3.72898L193.21 6.65921M175.21 3.72898L172.905 14.5546M193.21 6.65921L190.779 17.5546M163.462 47.0546C155.462 55.5546 162.529 68.8438 171.21 68.0546C172.511 67.9363 173.609 67.3931 174.489 66.5546M163.462 47.0546C167.173 43.1115 173.335 48.6884 175.71 53.5546C177.908 58.0586 177.333 63.8466 174.489 66.5546M163.462 47.0546C167.632 49.736 169.574 56.1491 169.909 57.3567C169.945 57.489 169.968 57.6194 169.988 57.7553C170.142 58.8432 171.048 64.0736 174.489 66.5546M153.974 11.0546L160.21 12.0546M172.905 14.5546L170.15 27.4893C169.939 28.4811 170.793 29.3741 171.793 29.2074L171.921 29.186C172.401 29.106 172.884 29.3149 173.154 29.7198C173.478 30.2063 174.099 30.3991 174.642 30.1819L175.165 29.9725C175.811 29.7142 176.546 29.8231 177.089 30.2576L177.554 30.6297C178.275 31.2064 179.239 31.3783 180.115 31.0864L180.314 31.0198C181.17 30.7347 182.113 30.9573 182.75 31.5948L183.468 32.3123C183.894 32.7382 184.568 32.7861 185.05 32.4247L185.676 31.9553C185.954 31.7467 186.353 31.8409 186.509 32.152C186.743 32.6212 187.437 32.5361 187.551 32.0241L190.779 17.5546M172.905 14.5546L164.71 13.0546M190.779 17.5546L197.21 19.0546M209.967 21.5546L201.21 20.0546M177.71 57.0546C177.71 57.0546 181.21 55.0546 184.71 55.5546C185.526 55.6711 186.188 55.9846 186.71 56.4467M186.71 56.4467C189.909 59.2772 187.861 67.6834 183.71 70.5546C180.032 73.0989 175.615 74.7125 172.67 71.5546M186.71 56.4467C182.599 58.7565 180.751 60.5347 178.71 65.0546C176.669 69.5745 172.67 71.5546 172.67 71.5546M172.67 71.5546C171.904 70.7332 171.238 69.5891 170.71 68.0546M217.59 492.163L215.707 491.15C214.719 490.618 213.523 490.685 212.606 491.322L195.056 503.516C193.504 504.595 193.33 506.843 194.698 508.166L203.552 516.736M217.59 492.163L225.61 499.799M217.59 492.163L219.499 491.193M221.409 490.222L220.608 489.453C219.564 488.449 219.374 486.84 220.157 485.626L235.33 462.111M221.409 490.222L228.846 497.37M221.409 490.222L219.499 491.193M250.95 464.909L239.962 454.931M250.95 464.909L228.846 497.37M250.95 464.909L266.106 478.671M239.962 454.931C239.962 454.931 234.539 450.825 230.128 447.415C228.754 446.353 226.779 446.665 225.835 448.118C221.19 455.267 215.772 464.313 213.71 467.783C213.176 468.68 213.146 469.798 213.724 470.673C215.361 473.147 218.92 477.326 220.996 470.777C223.757 462.068 225.845 455.527 231.737 456.735C235.178 457.44 235.33 462.111 235.33 462.111M239.962 454.931L235.33 462.111M239.962 454.931L261.631 463.759M228.846 497.37L236.47 504.697M278.231 489.681L266.106 478.671M278.231 489.681L276.163 491.186M278.231 489.681L266.703 469.018M266.106 478.671L236.47 504.697M236.47 504.697L244.093 512.024M244.093 512.024L243.152 513.815M244.093 512.024C244.955 512.853 246.278 512.947 247.238 512.247L263.471 500.428M242.211 515.605L233.631 507.436M242.211 515.605L243.152 513.815M242.211 515.605C243.175 516.124 243.544 517.33 243.034 518.299L232.111 539.077C231.184 540.839 228.839 541.21 227.405 539.823L218.392 531.099M233.631 507.436L218.392 531.099M233.631 507.436L225.61 499.799M218.392 531.099L203.552 516.736M225.61 499.799L203.552 516.736M276.163 491.186C276.163 491.186 277.683 493.917 283.124 497.411C288.564 500.904 263.471 500.428 263.471 500.428M276.163 491.186L263.471 500.428M243.152 513.815L219.499 491.193M261.631 463.759L263.91 464.985C264.416 465.258 264.835 465.671 265.116 466.175L266.703 469.018M261.631 463.759L263.365 462.222C265.744 460.113 269.329 462.723 268.1 465.669L266.703 469.018M424.59 631.163L422.707 630.15C421.719 629.618 420.523 629.685 419.606 630.322L402.056 642.516C400.504 643.595 400.33 645.843 401.698 647.166L410.552 655.736M424.59 631.163L432.61 638.799M424.59 631.163L426.499 630.193M428.409 629.222L427.608 628.453C426.564 627.449 426.374 625.84 427.157 624.626L442.33 601.111M428.409 629.222L435.846 636.37M428.409 629.222L426.499 630.193M457.95 603.909L446.962 593.931M457.95 603.909L435.846 636.37M457.95 603.909L473.106 617.671M446.962 593.931C446.962 593.931 441.539 589.825 437.128 586.415C435.754 585.353 433.779 585.665 432.835 587.118C428.19 594.267 422.772 603.313 420.71 606.783C420.176 607.68 420.146 608.798 420.724 609.673C422.361 612.147 425.92 616.326 427.996 609.777C430.757 601.068 432.845 594.527 438.737 595.735C442.178 596.44 442.33 601.111 442.33 601.111M446.962 593.931L442.33 601.111M446.962 593.931L468.631 602.759M435.846 636.37L443.47 643.697M485.231 628.681L473.106 617.671M485.231 628.681L483.163 630.186M485.231 628.681L473.703 608.018M473.106 617.671L443.47 643.697M443.47 643.697L451.093 651.024M451.093 651.024L450.152 652.815M451.093 651.024C451.955 651.853 453.278 651.947 454.238 651.247L470.471 639.428M449.211 654.605L440.631 646.436M449.211 654.605L450.152 652.815M449.211 654.605C450.175 655.124 450.544 656.33 450.034 657.299L439.111 678.077C438.184 679.839 435.839 680.21 434.405 678.823L425.392 670.099M440.631 646.436L425.392 670.099M440.631 646.436L432.61 638.799M425.392 670.099L410.552 655.736M432.61 638.799L410.552 655.736M483.163 630.186C483.163 630.186 484.683 632.917 490.124 636.411C495.564 639.904 470.471 639.428 470.471 639.428M483.163 630.186L470.471 639.428M450.152 652.815L426.499 630.193M468.631 602.759L470.91 603.985C471.416 604.258 471.835 604.671 472.116 605.175L473.703 608.018M468.631 602.759L470.365 601.222C472.744 599.113 476.329 601.723 475.1 604.669L473.703 608.018M413.59 284.163L411.707 283.15C410.719 282.618 409.523 282.685 408.606 283.322L391.056 295.516C389.504 296.595 389.33 298.843 390.698 300.166L399.552 308.736M413.59 284.163L421.61 291.799M413.59 284.163L415.499 283.193M417.409 282.222L416.608 281.453C415.564 280.449 415.374 278.84 416.157 277.626L431.33 254.111M417.409 282.222L424.846 289.37M417.409 282.222L415.499 283.193M446.95 256.909L435.962 246.931M446.95 256.909L424.846 289.37M446.95 256.909L462.106 270.671M435.962 246.931C435.962 246.931 430.539 242.825 426.128 239.415C424.754 238.353 422.779 238.665 421.835 240.118C417.19 247.267 411.772 256.313 409.71 259.783C409.176 260.68 409.146 261.798 409.724 262.673C411.361 265.147 414.92 269.326 416.996 262.777C419.757 254.068 421.845 247.527 427.737 248.735C431.178 249.44 431.33 254.111 431.33 254.111M435.962 246.931L431.33 254.111M435.962 246.931L457.631 255.759M424.846 289.37L432.47 296.697M474.231 281.681L462.106 270.671M474.231 281.681L472.163 283.186M474.231 281.681L462.703 261.018M462.106 270.671L432.47 296.697M432.47 296.697L440.093 304.024M440.093 304.024L439.152 305.815M440.093 304.024C440.955 304.853 442.278 304.947 443.238 304.247L459.471 292.428M438.211 307.605L429.631 299.436M438.211 307.605L439.152 305.815M438.211 307.605C439.175 308.124 439.544 309.33 439.034 310.299L428.111 331.077C427.184 332.839 424.839 333.21 423.405 331.823L414.392 323.099M429.631 299.436L414.392 323.099M429.631 299.436L421.61 291.799M414.392 323.099L399.552 308.736M421.61 291.799L399.552 308.736M472.163 283.186C472.163 283.186 473.683 285.917 479.124 289.411C484.564 292.904 459.471 292.428 459.471 292.428M472.163 283.186L459.471 292.428M439.152 305.815L415.499 283.193M457.631 255.759L459.91 256.985C460.416 257.258 460.835 257.671 461.116 258.175L462.703 261.018M457.631 255.759L459.365 254.222C461.744 252.113 465.329 254.723 464.1 257.669L462.703 261.018M290.59 71.1629L288.707 70.1496C287.719 69.6182 286.523 69.6848 285.606 70.3221L268.056 82.5159C266.504 83.5947 266.33 85.8427 267.698 87.166L276.552 95.7357M290.59 71.1629L298.61 78.7994M290.59 71.1629L292.499 70.1926M294.409 69.2222L293.608 68.4528C292.564 67.4487 292.374 65.8401 293.157 64.6265L308.33 41.1108M294.409 69.2222L301.846 76.3705M294.409 69.2222L292.499 70.1926M323.95 43.9088L312.962 33.9311M323.95 43.9088L301.846 76.3705M323.95 43.9088L339.106 57.6712M312.962 33.9311C312.962 33.9311 307.539 29.8248 303.128 26.4151C301.754 25.3527 299.779 25.665 298.835 27.1182C294.19 34.2671 288.772 43.3133 286.71 46.7828C286.176 47.6805 286.146 48.7982 286.724 49.6731C288.361 52.1473 291.92 56.326 293.996 49.7766C296.757 41.0685 298.845 34.5272 304.737 35.7348C308.178 36.4401 308.33 41.1108 308.33 41.1108M312.962 33.9311L308.33 41.1108M312.962 33.9311L334.631 42.7591M301.846 76.3705L309.47 83.6975M351.231 68.6811L339.106 57.6712M351.231 68.6811L349.163 70.1864M351.231 68.6811L339.703 48.0185M339.106 57.6712L309.47 83.6975M309.47 83.6975L317.093 91.0244M317.093 91.0244L316.152 92.8148M317.093 91.0244C317.955 91.8529 319.278 91.9467 320.238 91.2473L336.471 79.4278M315.211 94.6051L306.631 86.4358M315.211 94.6051L316.152 92.8148M315.211 94.6051C316.175 95.1237 316.544 96.3297 316.034 97.2986L305.111 118.077C304.184 119.839 301.839 120.21 300.405 118.823L291.392 110.099M306.631 86.4358L291.392 110.099M306.631 86.4358L298.61 78.7994M291.392 110.099L276.552 95.7357M298.61 78.7994L276.552 95.7357M349.163 70.1864C349.163 70.1864 350.683 72.9171 356.124 76.4108C361.564 79.9045 336.471 79.4278 336.471 79.4278M349.163 70.1864L336.471 79.4278M316.152 92.8148L292.499 70.1926M334.631 42.7591L336.91 43.9853C337.416 44.2577 337.835 44.6707 338.116 45.175L339.703 48.0185M334.631 42.7591L336.365 41.2221C338.744 39.1135 342.329 41.7233 341.1 44.6691L339.703 48.0185M69.7472 433.014L69.6788 433.072M69.6788 433.072L25.7823 469.895C24.5944 470.891 22.8431 470.803 21.7486 469.691L1.87294 449.506C0.788316 448.405 0.704096 446.658 1.67816 445.467L37.5873 401.552M69.6788 433.072C69.2143 433.054 68.7437 432.922 68.3043 432.659C54.4518 424.37 47.2294 416.802 38.1203 402.974C36.9956 401.267 37.8787 398.969 39.8392 398.456L43.6587 397.456M69.6788 433.072C71.007 433.123 72.2845 432.24 72.6348 430.816L73.6647 426.628M43.6587 397.456C45.8469 400.987 47.8046 404.13 49.7513 406.964M43.6587 397.456C51.9585 401.374 57.8398 404.862 62.798 410.02M49.7513 406.964C55.7187 415.653 61.5825 421.445 73.6647 426.628M49.7513 406.964L58.5316 411.689C59.9907 412.474 61.7985 411.921 62.5694 410.455L62.798 410.02M73.6647 426.628C71.5152 422.189 70.1476 419.299 67.9548 416.193M62.798 410.02L68.4746 413.075C68.4746 413.075 70.22 414.014 67.9548 416.193M67.4351 419.311C67.4351 419.311 65.6897 418.372 67.9548 416.193M259.747 616.014L259.679 616.072M259.679 616.072L215.782 652.895C214.594 653.891 212.843 653.803 211.749 652.692L191.873 632.506C190.788 631.405 190.704 629.658 191.678 628.467L227.587 584.552M259.679 616.072C259.214 616.054 258.744 615.922 258.304 615.659C244.452 607.37 237.229 599.802 228.12 585.974C226.996 584.267 227.879 581.969 229.839 581.456L233.659 580.456M259.679 616.072C261.007 616.123 262.284 615.24 262.635 613.816L263.665 609.628M233.659 580.456C235.847 583.987 237.805 587.13 239.751 589.964M233.659 580.456C241.958 584.374 247.84 587.862 252.798 593.02M239.751 589.964C245.719 598.653 251.582 604.445 263.665 609.628M239.751 589.964L248.532 594.689C249.991 595.474 251.798 594.921 252.569 593.455L252.798 593.02M263.665 609.628C261.515 605.189 260.148 602.299 257.955 599.193M252.798 593.02L258.475 596.075C258.475 596.075 260.22 597.014 257.955 599.193M257.435 602.311C257.435 602.311 255.69 601.372 257.955 599.193M331.747 357.014L331.679 357.072M331.679 357.072L287.782 393.895C286.594 394.891 284.843 394.803 283.749 393.691L263.873 373.506C262.788 372.405 262.704 370.658 263.678 369.467L299.587 325.552M331.679 357.072C331.214 357.054 330.744 356.922 330.304 356.659C316.452 348.37 309.229 340.802 300.12 326.974C298.996 325.267 299.879 322.969 301.839 322.456L305.659 321.456M331.679 357.072C333.007 357.123 334.284 356.24 334.635 354.816L335.665 350.628M305.659 321.456C307.847 324.987 309.805 328.13 311.751 330.964M305.659 321.456C313.958 325.374 319.84 328.862 324.798 334.02M311.751 330.964C317.719 339.653 323.582 345.445 335.665 350.628M311.751 330.964L320.532 335.689C321.991 336.474 323.798 335.921 324.569 334.455L324.798 334.02M335.665 350.628C333.515 346.189 332.148 343.299 329.955 340.193M324.798 334.02L330.475 337.075C330.475 337.075 332.22 338.014 329.955 340.193M329.435 343.311C329.435 343.311 327.69 342.372 329.955 340.193M131.486 501.914C131.486 501.914 129.008 494.917 102.577 490.888C76.1457 486.86 72.4325 493.923 72.4325 493.923M131.486 501.914C120.913 509.249 86.5164 505.466 72.4325 493.923M131.486 501.914C129.981 513.993 123.809 523.679 115.977 529.285M72.4325 493.923C72.5491 495.57 72.7003 497.161 72.884 498.697M72.884 498.697C57.5969 485.94 51.4709 518.888 79.1996 520.448M72.884 498.697C73.0464 500.054 73.2344 501.369 73.4465 502.642M79.1996 520.448C78.4424 519.064 77.7335 517.57 77.0794 515.963M79.1996 520.448C79.9665 521.85 80.783 523.139 81.6424 524.32M77.0794 515.963C75.5357 512.169 74.2968 507.745 73.4465 502.642M77.0794 515.963C59.0834 515.056 60.7444 492.731 73.4465 502.642M115.977 529.285C105.041 537.114 90.8665 536.988 81.6424 524.32M115.977 529.285C126.716 534.089 130.132 537.441 128.954 539.627M81.6424 524.32C70.1835 526.706 65.2872 529.181 64.771 531.519M128.954 539.627C128.954 539.627 130.655 536.721 127.552 544.536C124.449 552.351 63.2715 542.228 64.1065 535.315C64.6632 530.707 64.765 530.887 64.771 531.519M128.954 539.627C124.892 547.163 66.2244 540.83 64.7531 532.265M64.7531 532.265C64.7107 532.018 64.7158 531.77 64.771 531.519M64.7531 532.265C64.7531 532.265 64.774 531.836 64.771 531.519M83.4877 67.3727C83.4877 67.3727 81.0088 60.3757 54.5779 56.3473C28.147 52.319 24.4338 59.3822 24.4338 59.3822M83.4877 67.3727C72.914 74.7085 38.5177 70.9247 24.4338 59.3822M83.4877 67.3727C81.9824 79.4526 75.8105 89.1379 67.9787 94.7441M24.4338 59.3822C24.5505 61.0289 24.7016 62.6197 24.8853 64.1556M24.8853 64.1556C9.59822 51.3993 3.47218 84.3476 31.2009 85.9071M24.8853 64.1556C25.0478 65.5136 25.2357 66.8286 25.4478 68.1014M31.2009 85.9071C30.4437 84.523 29.7348 83.029 29.0807 81.4218M31.2009 85.9071C31.9678 87.309 32.7843 88.5983 33.6438 89.7787M29.0807 81.4218C27.537 77.6286 26.2981 73.2041 25.4478 68.1014M29.0807 81.4218C11.0847 80.5152 12.7457 58.1898 25.4478 68.1014M67.9787 94.7441C57.0419 102.573 42.8678 102.447 33.6438 89.7787M67.9787 94.7441C78.7177 99.5477 82.1338 102.9 80.9554 105.086M33.6438 89.7787C22.1848 92.1647 17.2885 94.6404 16.7723 96.9786M80.9554 105.086C80.9554 105.086 82.6559 102.18 79.553 109.995C76.4502 117.81 15.2728 107.687 16.1078 100.774C16.6645 96.1657 16.7663 96.3461 16.7723 96.9786M80.9554 105.086C76.893 112.622 18.2257 106.289 16.7544 97.7241M16.7544 97.7241C16.712 97.4773 16.7171 97.2287 16.7723 96.9786M16.7544 97.7241C16.7544 97.7241 16.7753 97.2948 16.7723 96.9786M75.7318 583.478C75.7318 583.478 84.0404 587.212 89.5183 589.198C91.5432 589.932 94.7337 590.99 94.7337 590.99M75.7318 583.478C64.2698 610.069 57.1518 623.844 43.8688 644.473C43.2113 645.495 43.1987 646.847 44.0227 647.736C46.5654 650.479 48.7551 650.394 50.6685 657.772M75.7318 583.478C74.9433 587.974 74.1043 592.21 73.196 596.272M50.6685 657.772C63.5936 663.636 71.0918 666.411 85.5304 669.171L85.5405 669.173C85.7117 669.205 96.9365 671.299 103.54 674.328C104.554 674.794 105.744 675.412 106.852 676.012C108.658 676.991 110.924 675.955 111.32 673.92C112.697 666.845 115.625 652.252 118.272 642.047C120.584 633.133 124.257 621.498 126.935 613.295M50.6685 657.772C61.8418 633.887 68.461 617.445 73.196 596.272M111.802 596.855L127.468 602.239C129.025 602.774 129.856 604.488 129.328 606.064C128.732 607.84 127.897 610.346 126.935 613.295M111.802 596.855L94.7337 590.99M111.802 596.855L108.789 607.495M94.7337 590.99L91.7977 601.75M101.945 640.624C104.981 651.885 92.6457 660.299 85.4359 655.526C84.3559 654.811 83.6498 653.816 83.2706 652.662M101.945 640.624C100.537 635.4 92.5703 637.43 88.2391 640.611C84.2302 643.555 82.046 648.936 83.2706 652.662M101.945 640.624C97.0608 641.033 92.3897 645.783 91.5372 646.692C91.4437 646.792 91.363 646.896 91.2831 647.007C90.6437 647.895 87.4254 652.087 83.2706 652.662M126.935 613.295L121.028 611.249M108.789 607.495L105.19 620.209C104.914 621.184 103.754 621.571 102.958 620.954L102.856 620.875C102.474 620.579 101.957 620.537 101.533 620.768C101.024 621.045 100.393 620.924 100.02 620.477L99.6603 620.046C99.2166 619.515 98.5248 619.266 97.8491 619.395L97.2705 619.505C96.3738 619.675 95.4527 619.375 94.824 618.706L94.6805 618.553C94.0664 617.9 93.1401 617.653 92.2878 617.917L91.3287 618.213C90.7593 618.389 90.1486 618.115 89.8958 617.57L89.5675 616.861C89.4216 616.546 89.0294 616.442 88.7492 616.644C88.3267 616.948 87.7607 616.547 87.8986 616.041L91.7977 601.75M108.789 607.495L116.637 610.019M91.7977 601.75L85.4896 600.055M73.196 596.272L81.5347 599.06M84.8691 642.762C84.8691 642.762 82.7431 639.352 79.4566 638.15C78.6907 637.87 77.9674 637.836 77.2971 637.999M77.2971 637.999C73.1916 638.996 71.0774 647.379 73.367 651.863C75.3958 655.837 78.5015 659.336 82.5372 657.93M77.2971 637.999C79.8125 641.969 80.6001 644.406 80.2832 649.355C79.9664 654.304 82.5372 657.93 82.5372 657.93M82.5372 657.93C83.5868 657.565 84.6994 656.868 85.8722 655.761M311.292 164.111C311.292 164.111 319.601 167.845 325.079 169.831C327.104 170.565 330.294 171.623 330.294 171.623M311.292 164.111C299.83 190.702 292.712 204.477 279.43 225.107C278.772 226.128 278.759 227.48 279.583 228.369C282.126 231.112 284.316 231.027 286.229 238.405M311.292 164.111C310.504 168.607 309.665 172.843 308.757 176.905M286.229 238.405C299.154 244.269 306.652 247.044 321.091 249.804L321.101 249.806C321.272 249.838 332.497 251.932 339.101 254.962C340.115 255.427 341.305 256.045 342.413 256.645C344.219 257.624 346.485 256.588 346.881 254.553C348.257 247.478 351.185 232.885 353.833 222.68C356.145 213.766 359.817 202.131 362.495 193.928M286.229 238.405C297.402 214.52 304.022 198.078 308.757 176.905M347.363 177.488L363.029 182.872C364.586 183.407 365.417 185.121 364.888 186.697C364.292 188.473 363.458 190.979 362.495 193.928M347.363 177.488L330.294 171.623M347.363 177.488L344.35 188.129M330.294 171.623L327.358 182.384M337.506 221.257C340.542 232.518 328.206 240.932 320.997 236.159C319.917 235.444 319.21 234.449 318.831 233.295M337.506 221.257C336.097 216.033 328.131 218.063 323.8 221.244C319.791 224.188 317.607 229.569 318.831 233.295M337.506 221.257C332.621 221.666 327.95 226.416 327.098 227.325C327.004 227.425 326.924 227.529 326.844 227.64C326.204 228.528 322.986 232.72 318.831 233.295M362.495 193.928L356.589 191.882M344.35 188.129L340.75 200.842C340.474 201.817 339.314 202.204 338.519 201.588L338.417 201.508C338.035 201.212 337.517 201.17 337.094 201.401C336.585 201.678 335.954 201.557 335.581 201.11L335.221 200.68C334.777 200.148 334.085 199.899 333.41 200.028L332.831 200.138C331.934 200.309 331.013 200.008 330.385 199.339L330.241 199.186C329.627 198.533 328.701 198.286 327.848 198.55L326.889 198.846C326.32 199.022 325.709 198.748 325.456 198.203L325.128 197.495C324.982 197.18 324.59 197.075 324.31 197.277C323.887 197.581 323.321 197.18 323.459 196.674L327.358 182.384M344.35 188.129L352.197 190.652M327.358 182.384L321.05 180.688M308.757 176.905L317.095 179.693M320.43 223.395C320.43 223.395 318.304 219.986 315.017 218.784C314.251 218.503 313.528 218.469 312.858 218.632M312.858 218.632C308.752 219.629 306.638 228.012 308.928 232.496C310.956 236.47 314.062 239.969 318.098 238.563M312.858 218.632C315.373 222.602 316.161 225.039 315.844 229.988C315.527 234.937 318.098 238.563 318.098 238.563M318.098 238.563C319.147 238.198 320.26 237.501 321.433 236.394M201.821 156.201C193.854 156.275 188.933 164.601 191.321 172.201C193.985 180.683 207.205 182.473 212.321 175.201C217.396 167.987 210.642 156.12 201.821 156.201ZM65.8206 301.201C57.8545 301.275 52.933 309.601 55.3206 317.201C57.9853 325.683 71.205 327.473 76.3206 320.201C81.3965 312.987 74.6417 301.12 65.8206 301.201ZM41.6544 424.694C48.5724 428.499 49.0025 438.162 43.3912 443.751C37.1289 449.988 24.7617 445.36 23.6723 436.538C22.5915 427.785 33.994 420.48 41.6544 424.694ZM231.654 607.694C238.572 611.499 239.003 621.162 233.391 626.751C227.129 632.988 214.762 628.36 213.672 619.538C212.591 610.785 223.994 603.48 231.654 607.694ZM303.654 348.694C310.572 352.499 311.003 362.162 305.391 367.751C299.129 373.988 286.762 369.36 285.672 360.538C284.591 351.785 295.994 344.48 303.654 348.694Z" stroke="url(#paint0_linear_45_25)" stroke-opacity="0.5" stroke-width="2" stroke-linecap="round"/>
<defs>
<linearGradient id="paint0_linear_45_25" x1="-464.679" y1="977" x2="507.321" y2="211" gradientUnits="userSpaceOnUse">
<stop stop-color="#DBCEAD"/>
<stop offset="1" stop-color="#DBCEAD" stop-opacity="0"/>
</linearGradient>
</defs>
</svg>
