<svg width="483" height="659" viewBox="0 0 483 659" fill="none" xmlns="http://www.w3.org/2000/svg">
<path d="M101.494 202.5H103.674C104.792 202.5 105.818 203.122 106.334 204.114L116.289 223.227C117.168 224.915 116.273 226.984 114.441 227.5L102.494 230.864M101.494 202.5L90.7436 205.432M101.494 202.5L100.244 200.736M98.9936 198.972L100.085 198.669C101.48 198.281 102.4 196.953 102.27 195.51L99.76 167.54M98.9936 198.972L88.9936 201.75M98.9936 198.972L100.244 200.736M84.4936 162.589L98.9936 159M84.4936 162.589L88.9936 201.75M84.4936 162.589L64.4936 167.54M98.9936 159C98.9936 159 105.794 157.947 111.341 157.031C113.05 156.748 114.65 157.957 114.81 159.682C115.602 168.201 116.195 178.769 116.408 182.816C116.463 183.863 115.966 184.865 115.043 185.36C112.421 186.767 107.272 188.773 108.494 182C110.117 173 111.323 166.233 105.494 164.5C102.089 163.488 99.76 167.54 99.76 167.54M98.9936 159L99.76 167.54M98.9936 159L75.4935 156.5M88.9936 201.75L78.7436 204.597M48.4936 171.5L64.4936 167.54M48.4936 171.5L49.6334 173.811M48.4936 171.5L68.4936 158.734M64.4936 167.54L78.7436 204.597M78.7436 204.597L68.4936 207.444M68.4936 207.444V209.472M68.4936 207.444C67.3335 207.767 66.1081 207.218 65.5755 206.138L56.6306 188M68.4936 211.5L79.9936 208.364M68.4936 211.5V209.472M68.4936 211.5C67.3891 211.5 66.4936 212.395 66.4936 213.5V237.039C66.4936 239.027 68.3928 240.465 70.3067 239.926L82.4936 236.495M79.9936 208.364L82.4936 236.495M79.9936 208.364L90.7436 205.432M82.4936 236.495L102.494 230.864M90.7436 205.432L102.494 230.864M49.6334 173.811C49.6334 173.811 46.9935 175.5 40.4935 176C33.9935 176.5 56.6306 188 56.6306 188M49.6334 173.811L56.6306 188M68.4936 209.472L100.244 200.736M75.4935 156.5H72.8695C72.2975 156.5 71.7375 156.664 71.2554 156.971L68.4936 158.734M75.4935 156.5L74.6216 154.201C73.4921 151.224 69.1128 151.825 68.8285 154.997L68.4936 158.734M163.821 150.201L163.86 150.297M163.86 150.297L185.78 203.669C186.37 205.103 187.955 205.852 189.438 205.396L216.717 197.003C218.194 196.548 219.084 195.046 218.773 193.532L207.321 137.701M163.86 150.297C164.274 150.494 164.744 150.597 165.246 150.575C181.531 149.84 191.54 146.589 206.181 138.702C207.98 137.733 208.269 135.279 206.762 133.898L203.821 131.201M163.86 150.297C162.646 149.718 161.915 148.324 162.272 146.894L163.321 142.701M203.821 131.201C200.208 133.279 196.984 135.124 193.914 136.701M203.821 131.201C194.567 130.717 187.676 131.003 180.825 133.201M193.914 136.701C184.504 141.538 176.546 143.866 163.321 142.701M193.914 136.701H183.825C182.169 136.701 180.825 135.358 180.825 133.701V133.201M163.321 142.701C167.325 139.804 169.903 137.902 173.321 136.201M180.825 133.201H174.321C174.321 133.201 172.321 133.201 173.321 136.201M172.321 139.201C172.321 139.201 174.321 139.201 173.321 136.201M27.8206 295.201L27.8598 295.297M27.8598 295.297L49.7804 348.669C50.3696 350.103 51.9553 350.852 53.4377 350.396L80.7166 342.003C82.1935 341.548 83.0837 340.046 82.7731 338.533L71.3206 282.701M27.8598 295.297C28.2738 295.494 28.7439 295.597 29.2462 295.575C45.531 294.84 55.5399 291.589 70.1808 283.702C71.9802 282.733 72.2687 280.279 70.762 278.898L67.8206 276.201M27.8598 295.297C26.6459 294.718 25.9149 293.324 26.2725 291.894L27.3206 287.701M67.8206 276.201C64.2082 278.279 60.9838 280.124 57.914 281.701M67.8206 276.201C58.5675 275.717 51.6763 276.003 44.8254 278.201M57.914 281.701C48.5036 286.538 40.5464 288.866 27.3206 287.701M57.914 281.701H47.8254C46.1686 281.701 44.8254 280.358 44.8254 278.701V278.201M27.3206 287.701C31.3247 284.804 33.9034 282.902 37.3206 281.201M44.8254 278.201H38.3206C38.3206 278.201 36.3206 278.201 37.3206 281.201M36.3206 284.201C36.3206 284.201 38.3206 284.201 37.3206 281.201M169.494 261C169.494 261 174.994 256 200.494 265C225.994 274 225.994 282 225.994 282M169.494 261C175.494 272.5 207.994 285.5 225.994 282M169.494 261C165.166 272.38 166.131 283.864 170.494 292.534M225.994 282C225.116 283.399 224.234 284.731 223.349 286M223.349 286C242.994 282 232.994 314 207.494 302.204M223.349 286C222.566 287.122 221.781 288.193 220.994 289.216M207.494 302.204C208.82 301.341 210.155 300.359 211.494 299.251M207.494 302.204C206.15 303.077 204.816 303.828 203.494 304.461M211.494 299.251C214.654 296.635 217.838 293.318 220.994 289.216M211.494 299.251C227.994 307 236.994 286.5 220.994 289.216M170.494 292.534C176.586 304.642 189.306 311.264 203.494 304.461M170.494 292.534C158.646 291.673 154.02 293.01 154.046 295.5M203.494 304.461C212.609 312.012 215.819 316.524 215.183 318.833M154.046 295.5C154.046 295.5 153.892 292.126 152.994 300.5C152.096 308.874 211.494 329 213.994 322.5C215.661 318.167 215.485 318.278 215.183 318.833M154.046 295.5C154.136 304.083 209.512 326.363 214.848 319.5M214.848 319.5C215.002 319.302 215.114 319.08 215.183 318.833M214.848 319.5C214.848 319.5 215.031 319.111 215.183 318.833M307.831 534.385C307.831 534.385 313.331 529.385 338.831 538.385C364.331 547.385 364.331 555.385 364.331 555.385M307.831 534.385C313.831 545.885 346.331 558.885 364.331 555.385M307.831 534.385C303.503 545.765 304.468 557.249 308.831 565.919M364.331 555.385C363.453 556.784 362.571 558.116 361.686 559.385M361.686 559.385C381.331 555.385 371.331 587.385 345.831 575.589M361.686 559.385C360.903 560.507 360.118 561.578 359.331 562.601M345.831 575.589C347.157 574.726 348.492 573.744 349.831 572.636M345.831 575.589C344.487 576.462 343.153 577.213 341.831 577.846M349.831 572.636C352.991 570.02 356.175 566.703 359.331 562.601M349.831 572.636C366.331 580.385 375.331 559.885 359.331 562.601M308.831 565.919C314.923 578.027 327.643 584.649 341.831 577.846M308.831 565.919C296.983 565.058 292.357 566.395 292.383 568.885M341.831 577.846C350.945 585.397 354.156 589.909 353.519 592.218M292.383 568.885C292.383 568.885 292.229 565.511 291.331 573.885C290.433 582.259 349.83 602.385 352.331 595.885C353.998 591.552 353.822 591.663 353.519 592.218M292.383 568.885C292.473 577.468 347.849 599.748 353.185 592.885M353.185 592.885C353.339 592.687 353.451 592.465 353.519 592.218M353.185 592.885C353.185 592.885 353.368 592.496 353.519 592.218M180.993 359.5C180.993 359.5 171.819 358.849 165.993 358C163.84 357.686 160.493 357.105 160.493 357.105M180.993 359.5C178.745 388.422 178.635 403.965 180.812 428.489C180.92 429.703 180.296 430.903 179.142 431.297C175.583 432.511 173.667 431.395 168.493 437M180.993 359.5C179.587 363.844 178.347 367.982 177.251 372M168.493 437C154.195 436.037 146.194 434.925 132.001 430.502L131.992 430.499C131.824 430.446 120.814 426.963 113.494 426.5C112.369 426.429 111.016 426.409 109.745 426.413C107.671 426.419 106.134 424.428 106.736 422.444C108.829 415.543 113.066 401.268 115.493 391C117.614 382.031 119.797 370.015 121.257 361.5M168.493 437C169.729 410.604 171.538 392.943 177.251 372M142.493 354.174L125.972 351.485C124.33 351.218 122.783 352.337 122.515 353.979C122.214 355.83 121.782 358.439 121.257 361.5M142.493 354.174L160.493 357.105M142.493 354.174L140.188 365M160.493 357.105L158.063 368M130.745 397.5C122.745 406 129.812 419.289 138.493 418.5C139.794 418.382 140.892 417.839 141.773 417M130.745 397.5C134.456 393.557 140.619 399.134 142.993 404C145.192 408.504 144.616 414.292 141.773 417M130.745 397.5C134.916 400.181 136.857 406.595 137.192 407.802C137.229 407.934 137.252 408.065 137.271 408.201C137.425 409.289 138.331 414.519 141.773 417M121.257 361.5L127.493 362.5M140.188 365L137.433 377.935C137.222 378.927 138.076 379.82 139.076 379.653L139.205 379.631C139.685 379.551 140.167 379.76 140.437 380.165C140.761 380.652 141.382 380.845 141.925 380.627L142.449 380.418C143.094 380.16 143.829 380.269 144.372 380.703L144.837 381.075C145.558 381.652 146.522 381.824 147.398 381.532L147.598 381.465C148.453 381.18 149.396 381.403 150.034 382.04L150.751 382.758C151.177 383.184 151.851 383.232 152.333 382.87L152.959 382.401C153.237 382.192 153.637 382.286 153.792 382.597C154.027 383.067 154.721 382.982 154.835 382.47L158.063 368M140.188 365L131.993 363.5M158.063 368L164.493 369.5M177.251 372L168.493 370.5M144.993 407.5C144.993 407.5 148.493 405.5 151.993 406C152.809 406.117 153.471 406.43 153.993 406.892M153.993 406.892C157.193 409.723 155.144 418.129 150.993 421C147.315 423.544 142.898 425.158 139.954 422M153.993 406.892C149.883 409.202 148.034 410.98 145.993 415.5C143.953 420.02 139.954 422 139.954 422M139.954 422C139.188 421.179 138.521 420.035 137.993 418.5M419.71 405.055C419.71 405.055 410.536 404.404 404.71 403.555C402.557 403.241 399.21 402.659 399.21 402.659M419.71 405.055C417.462 433.977 417.351 449.52 419.528 474.044C419.636 475.258 419.012 476.458 417.859 476.851C414.3 478.065 412.384 476.95 407.21 482.555M419.71 405.055C418.303 409.399 417.063 413.537 415.967 417.555M407.21 482.555C392.912 481.592 384.911 480.48 370.718 476.057L370.708 476.054C370.54 476.001 359.531 472.517 352.21 472.055C351.086 471.984 349.732 471.964 348.461 471.967C346.388 471.973 344.851 469.982 345.452 467.998C347.545 461.097 351.783 446.822 354.21 436.555C356.33 427.586 358.513 415.569 359.974 407.055M407.21 482.555C408.446 456.158 410.254 438.498 415.967 417.555M381.21 399.729L364.689 397.039C363.047 396.772 361.499 397.891 361.232 399.533C360.93 401.385 360.499 403.993 359.974 407.055M381.21 399.729L399.21 402.659M381.21 399.729L378.905 410.555M399.21 402.659L396.779 413.555M369.462 443.055C361.462 451.555 368.529 464.844 377.21 464.055C378.511 463.936 379.609 463.393 380.489 462.555M369.462 443.055C373.173 439.112 379.335 444.688 381.71 449.555C383.908 454.059 383.333 459.847 380.489 462.555M369.462 443.055C373.632 445.736 375.574 452.149 375.909 453.357C375.945 453.489 375.968 453.619 375.988 453.755C376.142 454.843 377.048 460.074 380.489 462.555M359.974 407.055L366.21 408.055M378.905 410.555L376.15 423.489C375.939 424.481 376.793 425.374 377.793 425.207L377.921 425.186C378.401 425.106 378.884 425.315 379.154 425.72C379.478 426.206 380.099 426.399 380.642 426.182L381.165 425.973C381.811 425.714 382.546 425.823 383.089 426.258L383.554 426.63C384.275 427.206 385.239 427.378 386.115 427.086L386.314 427.02C387.17 426.735 388.113 426.957 388.75 427.595L389.468 428.312C389.894 428.738 390.568 428.786 391.05 428.425L391.676 427.955C391.954 427.747 392.353 427.841 392.509 428.152C392.743 428.621 393.437 428.536 393.551 428.024L396.779 413.555M378.905 410.555L370.71 409.055M396.779 413.555L403.21 415.055M415.967 417.555L407.21 416.055M383.71 453.055C383.71 453.055 387.21 451.055 390.71 451.555C391.526 451.671 392.188 451.985 392.71 452.447M392.71 452.447C395.909 455.277 393.861 463.683 389.71 466.555C386.032 469.099 381.615 470.713 378.67 467.555M392.71 452.447C388.599 454.757 386.751 456.535 384.71 461.055C382.669 465.574 378.67 467.555 378.67 467.555M378.67 467.555C377.904 466.733 377.238 465.589 376.71 464.055M204.71 9.05456C204.71 9.05456 195.536 8.40359 189.71 7.55456C187.557 7.24071 184.21 6.65921 184.21 6.65921M204.71 9.05456C202.462 37.9766 202.351 53.5196 204.528 78.0438C204.636 79.2578 204.012 80.458 202.859 80.8514C199.3 82.0652 197.384 80.9498 192.21 86.5546M204.71 9.05456C203.303 13.3986 202.063 17.537 200.967 21.5546M192.21 86.5546C177.912 85.5915 169.911 84.4798 155.718 80.057L155.708 80.0539C155.54 80.0007 144.531 76.5173 137.21 76.0546C136.086 75.9835 134.732 75.9637 133.461 75.9674C131.388 75.9734 129.851 73.9824 130.452 71.9982C132.545 65.0971 136.783 50.8225 139.21 40.5546C141.33 31.586 143.513 19.5691 144.974 11.0546M192.21 86.5546C193.446 60.1584 195.254 42.4977 200.967 21.5546M166.21 3.72898L149.689 1.03947C148.047 0.772133 146.499 1.89119 146.232 3.53341C145.93 5.38477 145.499 7.9933 144.974 11.0546M166.21 3.72898L184.21 6.65921M166.21 3.72898L163.905 14.5546M184.21 6.65921L181.779 17.5546M154.462 47.0546C146.462 55.5546 153.529 68.8438 162.21 68.0546C163.511 67.9363 164.609 67.3931 165.489 66.5546M154.462 47.0546C158.173 43.1115 164.335 48.6884 166.71 53.5546C168.908 58.0586 168.333 63.8466 165.489 66.5546M154.462 47.0546C158.632 49.736 160.574 56.1491 160.909 57.3567C160.945 57.489 160.968 57.6194 160.988 57.7553C161.142 58.8432 162.048 64.0736 165.489 66.5546M144.974 11.0546L151.21 12.0546M163.905 14.5546L161.15 27.4893C160.939 28.4811 161.793 29.3741 162.793 29.2074L162.921 29.186C163.401 29.106 163.884 29.3149 164.154 29.7198C164.478 30.2063 165.099 30.3991 165.642 30.1819L166.165 29.9725C166.811 29.7142 167.546 29.8231 168.089 30.2576L168.554 30.6297C169.275 31.2064 170.239 31.3783 171.115 31.0864L171.314 31.0198C172.17 30.7347 173.113 30.9573 173.75 31.5948L174.468 32.3123C174.894 32.7382 175.568 32.7861 176.05 32.4247L176.676 31.9553C176.954 31.7467 177.353 31.8409 177.509 32.152C177.743 32.6212 178.437 32.5361 178.551 32.0241L181.779 17.5546M163.905 14.5546L155.71 13.0546M181.779 17.5546L188.21 19.0546M200.967 21.5546L192.21 20.0546M168.71 57.0546C168.71 57.0546 172.21 55.0546 175.71 55.5546C176.526 55.6711 177.188 55.9846 177.71 56.4467M177.71 56.4467C180.909 59.2772 178.861 67.6834 174.71 70.5546C171.032 73.0989 166.615 74.7125 163.67 71.5546M177.71 56.4467C173.599 58.7565 171.751 60.5347 169.71 65.0546C167.669 69.5745 163.67 71.5546 163.67 71.5546M163.67 71.5546C162.904 70.7332 162.238 69.5891 161.71 68.0546M208.59 492.163L206.707 491.15C205.719 490.618 204.523 490.685 203.606 491.322L186.056 503.516C184.504 504.595 184.33 506.843 185.698 508.166L194.552 516.736M208.59 492.163L216.61 499.799M208.59 492.163L210.499 491.193M212.409 490.222L211.608 489.453C210.564 488.449 210.374 486.84 211.157 485.626L226.33 462.111M212.409 490.222L219.846 497.37M212.409 490.222L210.499 491.193M241.95 464.909L230.962 454.931M241.95 464.909L219.846 497.37M241.95 464.909L257.106 478.671M230.962 454.931C230.962 454.931 225.539 450.825 221.128 447.415C219.754 446.353 217.779 446.665 216.835 448.118C212.19 455.267 206.772 464.313 204.71 467.783C204.176 468.68 204.146 469.798 204.724 470.673C206.361 473.147 209.92 477.326 211.996 470.777C214.757 462.068 216.845 455.527 222.737 456.735C226.178 457.44 226.33 462.111 226.33 462.111M230.962 454.931L226.33 462.111M230.962 454.931L252.631 463.759M219.846 497.37L227.47 504.697M269.231 489.681L257.106 478.671M269.231 489.681L267.163 491.186M269.231 489.681L257.703 469.018M257.106 478.671L227.47 504.697M227.47 504.697L235.093 512.024M235.093 512.024L234.152 513.815M235.093 512.024C235.955 512.853 237.278 512.947 238.238 512.247L254.471 500.428M233.211 515.605L224.631 507.436M233.211 515.605L234.152 513.815M233.211 515.605C234.175 516.124 234.544 517.33 234.034 518.299L223.111 539.077C222.184 540.839 219.839 541.21 218.405 539.823L209.392 531.099M224.631 507.436L209.392 531.099M224.631 507.436L216.61 499.799M209.392 531.099L194.552 516.736M216.61 499.799L194.552 516.736M267.163 491.186C267.163 491.186 268.683 493.917 274.124 497.411C279.564 500.904 254.471 500.428 254.471 500.428M267.163 491.186L254.471 500.428M234.152 513.815L210.499 491.193M252.631 463.759L254.91 464.985C255.416 465.258 255.835 465.671 256.116 466.175L257.703 469.018M252.631 463.759L254.365 462.222C256.744 460.113 260.329 462.723 259.1 465.669L257.703 469.018M415.59 631.163L413.707 630.15C412.719 629.618 411.523 629.685 410.606 630.322L393.056 642.516C391.504 643.595 391.33 645.843 392.698 647.166L401.552 655.736M415.59 631.163L423.61 638.799M415.59 631.163L417.499 630.193M419.409 629.222L418.608 628.453C417.564 627.449 417.374 625.84 418.157 624.626L433.33 601.111M419.409 629.222L426.846 636.37M419.409 629.222L417.499 630.193M448.95 603.909L437.962 593.931M448.95 603.909L426.846 636.37M448.95 603.909L464.106 617.671M437.962 593.931C437.962 593.931 432.539 589.825 428.128 586.415C426.754 585.353 424.779 585.665 423.835 587.118C419.19 594.267 413.772 603.313 411.71 606.783C411.176 607.68 411.146 608.798 411.724 609.673C413.361 612.147 416.92 616.326 418.996 609.777C421.757 601.068 423.845 594.527 429.737 595.735C433.178 596.44 433.33 601.111 433.33 601.111M437.962 593.931L433.33 601.111M437.962 593.931L459.631 602.759M426.846 636.37L434.47 643.697M476.231 628.681L464.106 617.671M476.231 628.681L474.163 630.186M476.231 628.681L464.703 608.018M464.106 617.671L434.47 643.697M434.47 643.697L442.093 651.024M442.093 651.024L441.152 652.815M442.093 651.024C442.955 651.853 444.278 651.947 445.238 651.247L461.471 639.428M440.211 654.605L431.631 646.436M440.211 654.605L441.152 652.815M440.211 654.605C441.175 655.124 441.544 656.33 441.034 657.299L430.111 678.077C429.184 679.839 426.839 680.21 425.405 678.823L416.392 670.099M431.631 646.436L416.392 670.099M431.631 646.436L423.61 638.799M416.392 670.099L401.552 655.736M423.61 638.799L401.552 655.736M474.163 630.186C474.163 630.186 475.683 632.917 481.124 636.411C486.564 639.904 461.471 639.428 461.471 639.428M474.163 630.186L461.471 639.428M441.152 652.815L417.499 630.193M459.631 602.759L461.91 603.985C462.416 604.258 462.835 604.671 463.116 605.175L464.703 608.018M459.631 602.759L461.365 601.222C463.744 599.113 467.329 601.723 466.1 604.669L464.703 608.018M404.59 284.163L402.707 283.15C401.719 282.618 400.523 282.685 399.606 283.322L382.056 295.516C380.504 296.595 380.33 298.843 381.698 300.166L390.552 308.736M404.59 284.163L412.61 291.799M404.59 284.163L406.499 283.193M408.409 282.222L407.608 281.453C406.564 280.449 406.374 278.84 407.157 277.626L422.33 254.111M408.409 282.222L415.846 289.37M408.409 282.222L406.499 283.193M437.95 256.909L426.962 246.931M437.95 256.909L415.846 289.37M437.95 256.909L453.106 270.671M426.962 246.931C426.962 246.931 421.539 242.825 417.128 239.415C415.754 238.353 413.779 238.665 412.835 240.118C408.19 247.267 402.772 256.313 400.71 259.783C400.176 260.68 400.146 261.798 400.724 262.673C402.361 265.147 405.92 269.326 407.996 262.777C410.757 254.068 412.845 247.527 418.737 248.735C422.178 249.44 422.33 254.111 422.33 254.111M426.962 246.931L422.33 254.111M426.962 246.931L448.631 255.759M415.846 289.37L423.47 296.697M465.231 281.681L453.106 270.671M465.231 281.681L463.163 283.186M465.231 281.681L453.703 261.018M453.106 270.671L423.47 296.697M423.47 296.697L431.093 304.024M431.093 304.024L430.152 305.815M431.093 304.024C431.955 304.853 433.278 304.947 434.238 304.247L450.471 292.428M429.211 307.605L420.631 299.436M429.211 307.605L430.152 305.815M429.211 307.605C430.175 308.124 430.544 309.33 430.034 310.299L419.111 331.077C418.184 332.839 415.839 333.21 414.405 331.823L405.392 323.099M420.631 299.436L405.392 323.099M420.631 299.436L412.61 291.799M405.392 323.099L390.552 308.736M412.61 291.799L390.552 308.736M463.163 283.186C463.163 283.186 464.683 285.917 470.124 289.411C475.564 292.904 450.471 292.428 450.471 292.428M463.163 283.186L450.471 292.428M430.152 305.815L406.499 283.193M448.631 255.759L450.91 256.985C451.416 257.258 451.835 257.671 452.116 258.175L453.703 261.018M448.631 255.759L450.365 254.222C452.744 252.113 456.329 254.723 455.1 257.669L453.703 261.018M281.59 71.1629L279.707 70.1496C278.719 69.6182 277.523 69.6848 276.606 70.3221L259.056 82.5159C257.504 83.5947 257.33 85.8427 258.698 87.166L267.552 95.7357M281.59 71.1629L289.61 78.7994M281.59 71.1629L283.499 70.1926M285.409 69.2222L284.608 68.4528C283.564 67.4487 283.374 65.8401 284.157 64.6265L299.33 41.1108M285.409 69.2222L292.846 76.3705M285.409 69.2222L283.499 70.1926M314.95 43.9088L303.962 33.9311M314.95 43.9088L292.846 76.3705M314.95 43.9088L330.106 57.6712M303.962 33.9311C303.962 33.9311 298.539 29.8248 294.128 26.4151C292.754 25.3527 290.779 25.665 289.835 27.1182C285.19 34.2671 279.772 43.3133 277.71 46.7828C277.176 47.6805 277.146 48.7982 277.724 49.6731C279.361 52.1473 282.92 56.326 284.996 49.7766C287.757 41.0685 289.845 34.5272 295.737 35.7348C299.178 36.4401 299.33 41.1108 299.33 41.1108M303.962 33.9311L299.33 41.1108M303.962 33.9311L325.631 42.7591M292.846 76.3705L300.47 83.6975M342.231 68.6811L330.106 57.6712M342.231 68.6811L340.163 70.1864M342.231 68.6811L330.703 48.0185M330.106 57.6712L300.47 83.6975M300.47 83.6975L308.093 91.0244M308.093 91.0244L307.152 92.8148M308.093 91.0244C308.955 91.8529 310.278 91.9467 311.238 91.2473L327.471 79.4278M306.211 94.6051L297.631 86.4358M306.211 94.6051L307.152 92.8148M306.211 94.6051C307.175 95.1237 307.544 96.3297 307.034 97.2986L296.111 118.077C295.184 119.839 292.839 120.21 291.405 118.823L282.392 110.099M297.631 86.4358L282.392 110.099M297.631 86.4358L289.61 78.7994M282.392 110.099L267.552 95.7357M289.61 78.7994L267.552 95.7357M340.163 70.1864C340.163 70.1864 341.683 72.9171 347.124 76.4108C352.564 79.9045 327.471 79.4278 327.471 79.4278M340.163 70.1864L327.471 79.4278M307.152 92.8148L283.499 70.1926M325.631 42.7591L327.91 43.9853C328.416 44.2577 328.835 44.6707 329.116 45.175L330.703 48.0185M325.631 42.7591L327.365 41.2221C329.744 39.1135 333.329 41.7233 332.1 44.6691L330.703 48.0185M60.7472 433.014L60.6788 433.072M60.6788 433.072L16.7823 469.895C15.5944 470.891 13.8431 470.803 12.7486 469.691L-7.12706 449.506C-8.21168 448.405 -8.2959 446.658 -7.32184 445.467L28.5873 401.552M60.6788 433.072C60.2143 433.054 59.7437 432.922 59.3043 432.659C45.4518 424.37 38.2294 416.802 29.1203 402.974C27.9956 401.267 28.8787 398.969 30.8392 398.456L34.6587 397.456M60.6788 433.072C62.007 433.123 63.2845 432.24 63.6348 430.816L64.6647 426.628M34.6587 397.456C36.8469 400.987 38.8046 404.13 40.7513 406.964M34.6587 397.456C42.9585 401.374 48.8398 404.862 53.798 410.02M40.7513 406.964C46.7187 415.653 52.5825 421.445 64.6647 426.628M40.7513 406.964L49.5316 411.689C50.9907 412.474 52.7985 411.921 53.5694 410.455L53.798 410.02M64.6647 426.628C62.5152 422.189 61.1476 419.299 58.9548 416.193M53.798 410.02L59.4746 413.075C59.4746 413.075 61.22 414.014 58.9548 416.193M58.4351 419.311C58.4351 419.311 56.6897 418.372 58.9548 416.193M250.747 616.014L250.679 616.072M250.679 616.072L206.782 652.895C205.594 653.891 203.843 653.803 202.749 652.692L182.873 632.506C181.788 631.405 181.704 629.658 182.678 628.467L218.587 584.552M250.679 616.072C250.214 616.054 249.744 615.922 249.304 615.659C235.452 607.37 228.229 599.802 219.12 585.974C217.996 584.267 218.879 581.969 220.839 581.456L224.659 580.456M250.679 616.072C252.007 616.123 253.284 615.24 253.635 613.816L254.665 609.628M224.659 580.456C226.847 583.987 228.805 587.13 230.751 589.964M224.659 580.456C232.958 584.374 238.84 587.862 243.798 593.02M230.751 589.964C236.719 598.653 242.582 604.445 254.665 609.628M230.751 589.964L239.532 594.689C240.991 595.474 242.798 594.921 243.569 593.455L243.798 593.02M254.665 609.628C252.515 605.189 251.148 602.299 248.955 599.193M243.798 593.02L249.475 596.075C249.475 596.075 251.22 597.014 248.955 599.193M248.435 602.311C248.435 602.311 246.69 601.372 248.955 599.193M322.747 357.014L322.679 357.072M322.679 357.072L278.782 393.895C277.594 394.891 275.843 394.803 274.749 393.691L254.873 373.506C253.788 372.405 253.704 370.658 254.678 369.467L290.587 325.552M322.679 357.072C322.214 357.054 321.744 356.922 321.304 356.659C307.452 348.37 300.229 340.802 291.12 326.974C289.996 325.267 290.879 322.969 292.839 322.456L296.659 321.456M322.679 357.072C324.007 357.123 325.284 356.24 325.635 354.816L326.665 350.628M296.659 321.456C298.847 324.987 300.805 328.13 302.751 330.964M296.659 321.456C304.958 325.374 310.84 328.862 315.798 334.02M302.751 330.964C308.719 339.653 314.582 345.445 326.665 350.628M302.751 330.964L311.532 335.689C312.991 336.474 314.798 335.921 315.569 334.455L315.798 334.02M326.665 350.628C324.515 346.189 323.148 343.299 320.955 340.193M315.798 334.02L321.475 337.075C321.475 337.075 323.22 338.014 320.955 340.193M320.435 343.311C320.435 343.311 318.69 342.372 320.955 340.193M122.486 501.914C122.486 501.914 120.008 494.917 93.5766 490.888C67.1457 486.86 63.4325 493.923 63.4325 493.923M122.486 501.914C111.913 509.249 77.5164 505.466 63.4325 493.923M122.486 501.914C120.981 513.993 114.809 523.679 106.977 529.285M63.4325 493.923C63.5491 495.57 63.7003 497.161 63.884 498.697M63.884 498.697C48.5969 485.94 42.4709 518.888 70.1996 520.448M63.884 498.697C64.0464 500.054 64.2344 501.369 64.4465 502.642M70.1996 520.448C69.4424 519.064 68.7335 517.57 68.0794 515.963M70.1996 520.448C70.9665 521.85 71.783 523.139 72.6424 524.32M68.0794 515.963C66.5357 512.169 65.2968 507.745 64.4465 502.642M68.0794 515.963C50.0834 515.056 51.7444 492.731 64.4465 502.642M106.977 529.285C96.0405 537.114 81.8665 536.988 72.6424 524.32M106.977 529.285C117.716 534.089 121.132 537.441 119.954 539.627M72.6424 524.32C61.1835 526.706 56.2872 529.181 55.771 531.519M119.954 539.627C119.954 539.627 121.655 536.721 118.552 544.536C115.449 552.351 54.2715 542.228 55.1065 535.315C55.6632 530.707 55.765 530.887 55.771 531.519M119.954 539.627C115.892 547.163 57.2244 540.83 55.7531 532.265M55.7531 532.265C55.7107 532.018 55.7158 531.77 55.771 531.519M55.7531 532.265C55.7531 532.265 55.774 531.836 55.771 531.519M74.4877 67.3727C74.4877 67.3727 72.0088 60.3757 45.5779 56.3473C19.147 52.319 15.4338 59.3822 15.4338 59.3822M74.4877 67.3727C63.914 74.7085 29.5177 70.9247 15.4338 59.3822M74.4877 67.3727C72.9824 79.4526 66.8105 89.1379 58.9787 94.7441M15.4338 59.3822C15.5505 61.0289 15.7016 62.6197 15.8853 64.1556M15.8853 64.1556C0.598223 51.3993 -5.52782 84.3476 22.2009 85.9071M15.8853 64.1556C16.0478 65.5136 16.2357 66.8286 16.4478 68.1014M22.2009 85.9071C21.4437 84.523 20.7348 83.029 20.0807 81.4218M22.2009 85.9071C22.9678 87.309 23.7843 88.5983 24.6438 89.7787M20.0807 81.4218C18.537 77.6286 17.2981 73.2041 16.4478 68.1014M20.0807 81.4218C2.08468 80.5152 3.74568 58.1898 16.4478 68.1014M58.9787 94.7441C48.0419 102.573 33.8678 102.447 24.6438 89.7787M58.9787 94.7441C69.7177 99.5477 73.1338 102.9 71.9554 105.086M24.6438 89.7787C13.1848 92.1647 8.28851 94.6404 7.77233 96.9786M71.9554 105.086C71.9554 105.086 73.6559 102.18 70.553 109.995C67.4502 117.81 6.27279 107.687 7.10782 100.774C7.66448 96.1657 7.76631 96.3461 7.77233 96.9786M71.9554 105.086C67.893 112.622 9.2257 106.289 7.75441 97.7241M7.75441 97.7241C7.71202 97.4773 7.7171 97.2287 7.77233 96.9786M7.75441 97.7241C7.75441 97.7241 7.77535 97.2948 7.77233 96.9786M66.7318 583.478C66.7318 583.478 75.0404 587.212 80.5183 589.198C82.5432 589.932 85.7337 590.99 85.7337 590.99M66.7318 583.478C55.2698 610.069 48.1518 623.844 34.8688 644.473C34.2113 645.495 34.1987 646.847 35.0227 647.736C37.5654 650.479 39.7551 650.394 41.6685 657.772M66.7318 583.478C65.9433 587.974 65.1043 592.21 64.196 596.272M41.6685 657.772C54.5936 663.636 62.0918 666.411 76.5304 669.171L76.5405 669.173C76.7117 669.205 87.9365 671.299 94.5399 674.328C95.5539 674.794 96.7442 675.412 97.8519 676.012C99.6585 676.991 101.924 675.955 102.32 673.92C103.697 666.845 106.625 652.252 109.272 642.047C111.584 633.133 115.257 621.498 117.935 613.295M41.6685 657.772C52.8418 633.887 59.461 617.445 64.196 596.272M102.802 596.855L118.468 602.239C120.025 602.774 120.856 604.488 120.328 606.064C119.732 607.84 118.897 610.346 117.935 613.295M102.802 596.855L85.7337 590.99M102.802 596.855L99.7893 607.495M85.7337 590.99L82.7977 601.75M92.9451 640.624C95.9813 651.885 83.6457 660.299 76.4359 655.526C75.3559 654.811 74.6498 653.816 74.2706 652.662M92.9451 640.624C91.5367 635.4 83.5703 637.43 79.2391 640.611C75.2302 643.555 73.046 648.936 74.2706 652.662M92.9451 640.624C88.0608 641.033 83.3897 645.783 82.5372 646.692C82.4437 646.792 82.363 646.896 82.2831 647.007C81.6437 647.895 78.4254 652.087 74.2706 652.662M117.935 613.295L112.028 611.249M99.7893 607.495L96.1896 620.209C95.9136 621.184 94.7538 621.571 93.9583 620.954L93.8561 620.875C93.4743 620.579 92.9565 620.537 92.5331 620.768C92.0242 621.045 91.393 620.924 91.02 620.477L90.6603 620.046C90.2166 619.515 89.5248 619.266 88.8491 619.395L88.2705 619.505C87.3738 619.675 86.4527 619.375 85.824 618.706L85.6805 618.553C85.0664 617.9 84.1401 617.653 83.2878 617.917L82.3287 618.213C81.7593 618.389 81.1486 618.115 80.8958 617.57L80.5675 616.861C80.4216 616.546 80.0294 616.442 79.7492 616.644C79.3267 616.948 78.7607 616.547 78.8986 616.041L82.7977 601.75M99.7893 607.495L107.637 610.019M82.7977 601.75L76.4896 600.055M64.196 596.272L72.5347 599.06M75.8691 642.762C75.8691 642.762 73.7431 639.352 70.4566 638.15C69.6907 637.87 68.9674 637.836 68.2971 637.999M68.2971 637.999C64.1916 638.996 62.0774 647.379 64.367 651.863C66.3958 655.837 69.5015 659.336 73.5372 657.93M68.2971 637.999C70.8125 641.969 71.6001 644.406 71.2832 649.355C70.9664 654.304 73.5372 657.93 73.5372 657.93M73.5372 657.93C74.5868 657.565 75.6994 656.868 76.8722 655.761M302.292 164.111C302.292 164.111 310.601 167.845 316.079 169.831C318.104 170.565 321.294 171.623 321.294 171.623M302.292 164.111C290.83 190.702 283.712 204.477 270.43 225.107C269.772 226.128 269.759 227.48 270.583 228.369C273.126 231.112 275.316 231.027 277.229 238.405M302.292 164.111C301.504 168.607 300.665 172.843 299.757 176.905M277.229 238.405C290.154 244.269 297.652 247.044 312.091 249.804L312.101 249.806C312.272 249.838 323.497 251.932 330.101 254.962C331.115 255.427 332.305 256.045 333.413 256.645C335.219 257.624 337.485 256.588 337.881 254.553C339.257 247.478 342.185 232.885 344.833 222.68C347.145 213.766 350.817 202.131 353.495 193.928M277.229 238.405C288.402 214.52 295.022 198.078 299.757 176.905M338.363 177.488L354.029 182.872C355.586 183.407 356.417 185.121 355.888 186.697C355.292 188.473 354.458 190.979 353.495 193.928M338.363 177.488L321.294 171.623M338.363 177.488L335.35 188.129M321.294 171.623L318.358 182.384M328.506 221.257C331.542 232.518 319.206 240.932 311.997 236.159C310.917 235.444 310.21 234.449 309.831 233.295M328.506 221.257C327.097 216.033 319.131 218.063 314.8 221.244C310.791 224.188 308.607 229.569 309.831 233.295M328.506 221.257C323.621 221.666 318.95 226.416 318.098 227.325C318.004 227.425 317.924 227.529 317.844 227.64C317.204 228.528 313.986 232.72 309.831 233.295M353.495 193.928L347.589 191.882M335.35 188.129L331.75 200.842C331.474 201.817 330.314 202.204 329.519 201.588L329.417 201.508C329.035 201.212 328.517 201.17 328.094 201.401C327.585 201.678 326.954 201.557 326.581 201.11L326.221 200.68C325.777 200.148 325.085 199.899 324.41 200.028L323.831 200.138C322.934 200.309 322.013 200.008 321.385 199.339L321.241 199.186C320.627 198.533 319.701 198.286 318.848 198.55L317.889 198.846C317.32 199.022 316.709 198.748 316.456 198.203L316.128 197.495C315.982 197.18 315.59 197.075 315.31 197.277C314.887 197.581 314.321 197.18 314.459 196.674L318.358 182.384M335.35 188.129L343.197 190.652M318.358 182.384L312.05 180.688M299.757 176.905L308.095 179.693M311.43 223.395C311.43 223.395 309.304 219.986 306.017 218.784C305.251 218.503 304.528 218.469 303.858 218.632M303.858 218.632C299.752 219.629 297.638 228.012 299.928 232.496C301.956 236.47 305.062 239.969 309.098 238.563M303.858 218.632C306.373 222.602 307.161 225.039 306.844 229.988C306.527 234.937 309.098 238.563 309.098 238.563M309.098 238.563C310.147 238.198 311.26 237.501 312.433 236.394M192.821 156.201C184.854 156.275 179.933 164.601 182.321 172.201C184.985 180.683 198.205 182.473 203.321 175.201C208.396 167.987 201.642 156.12 192.821 156.201ZM56.8206 301.201C48.8545 301.275 43.933 309.601 46.3206 317.201C48.9853 325.683 62.205 327.473 67.3206 320.201C72.3965 312.987 65.6417 301.12 56.8206 301.201ZM32.6544 424.694C39.5724 428.499 40.0025 438.162 34.3912 443.751C28.1289 449.988 15.7617 445.36 14.6723 436.538C13.5915 427.785 24.994 420.48 32.6544 424.694ZM222.654 607.694C229.572 611.499 230.003 621.162 224.391 626.751C218.129 632.988 205.762 628.36 204.672 619.538C203.591 610.785 214.994 603.48 222.654 607.694ZM294.654 348.694C301.572 352.499 302.003 362.162 296.391 367.751C290.129 373.988 277.762 369.36 276.672 360.538C275.591 351.785 286.994 344.48 294.654 348.694Z" stroke="url(#paint0_linear_45_22)" stroke-width="2" stroke-linecap="round"/>
<defs>
<linearGradient id="paint0_linear_45_22" x1="-473.679" y1="977" x2="498.321" y2="211" gradientUnits="userSpaceOnUse">
<stop stop-color="#DBCEAD"/>
<stop offset="1" stop-color="#DBCEAD" stop-opacity="0"/>
</linearGradient>
</defs>
</svg>
